<svg width="26" height="26" viewBox="0 0 26 26" fill="none" xmlns="http://www.w3.org/2000/svg">
  <path fill-rule="evenodd" clip-rule="evenodd"
        d="M13.0001 5.02667C15.4412 5.02667 17.0878 6.08111 18.0267 6.96222L21.6956 3.38C19.4423 1.28556 16.5101 0 13.0001 0C7.91561 0 3.5245 2.91778 1.38672 7.16444L5.59005 10.4289C6.6445 7.29445 9.56227 5.02667 13.0001 5.02667Z"
        fill="#EA4335"/>
  <path fill-rule="evenodd" clip-rule="evenodd"
        d="M25.48 13.2891C25.48 12.2202 25.3933 11.4402 25.2056 10.6313H13V15.4558H20.1644C20.02 16.6547 19.24 18.4602 17.5067 19.6736L21.6089 22.8513C24.0644 20.5836 25.48 17.2469 25.48 13.2891Z"
        fill="#4285F4"/>
  <path fill-rule="evenodd" clip-rule="evenodd"
        d="M5.60444 15.5712C5.33 14.7623 5.17111 13.8957 5.17111 13.0001C5.17111 12.1046 5.33 11.2379 5.59 10.429L1.38667 7.16455C0.505556 8.92677 0 10.9057 0 13.0001C0 15.0946 0.505556 17.0734 1.38667 18.8357L5.60444 15.5712Z"
        fill="#FBBC05"/>
  <path fill-rule="evenodd" clip-rule="evenodd"
        d="M13.0003 26.0002C16.5103 26.0002 19.4569 24.8446 21.6091 22.8513L17.5069 19.6735C16.4091 20.4391 14.9358 20.9735 13.0003 20.9735C9.56248 20.9735 6.6447 18.7057 5.6047 15.5713L1.40137 18.8357C3.53914 23.0824 7.91581 26.0002 13.0003 26.0002Z"
        fill="#34A853"/>
</svg>
