<svg width="641" height="542" viewBox="0 0 641 542" fill="none" xmlns="http://www.w3.org/2000/svg">
  <g clip-path="url(#clip0)">
    <path opacity="0.1" d="M455.567 541.993C491.733 541.993 521.052 539.062 521.052 535.445C521.052 531.828 491.733 528.896 455.567 528.896C419.401 528.896 390.083 531.828 390.083 535.445C390.083 539.062 419.401 541.993 455.567 541.993Z" fill="#6C63FF"/>
    <path opacity="0.1" d="M280.639 7.92783C309.48 -2.94741 344.591 6.40569 374.574 20.0467C468.746 62.8999 537.353 144.247 591.861 227.123C611.597 257.132 630.344 288.462 637.763 321.962C652.87 390.148 613.468 460.737 546.458 485.473C523.67 493.893 498.634 497.346 473.561 499.27C428.974 502.696 382.811 501.336 338.582 488.647C307.041 479.579 277.204 464.992 248.586 448.877C168.666 403.847 95.6789 345.371 43.1242 273.94C20.0745 242.61 0.574777 207.29 0.0128996 171.141C-0.548978 134.991 22.6732 98.6671 60.8808 92.5202C76.6773 89.9811 93.3867 92.6238 109.688 95.3443C133.689 99.3537 158.015 103.57 181.742 101.821C206.254 100.001 238.134 90.2856 242.604 66.5466C247.335 41.0588 251.836 18.7901 280.639 7.92783Z" fill="#6C63FF"/>
    <path d="M155.806 497.974C155.806 497.974 186.62 496.089 182.987 517.995C182.987 517.995 183.708 521.882 180.247 523.624C180.247 523.624 180.196 521.998 177.087 522.549C175.982 522.741 174.859 522.798 173.741 522.717C172.229 522.611 170.793 522.009 169.648 521.001C169.648 521.001 160.984 517.374 157.619 503.007C157.619 503.007 155.123 499.879 155.225 499.069L160.422 501.323C160.422 501.323 158.647 505.132 160.045 508.292C160.045 508.292 160.211 501.465 161.214 501.621C161.412 501.653 163.915 502.916 163.915 502.916C163.915 502.916 160.856 509.543 163.161 514.362C163.161 514.362 162.287 506.194 164.866 503.396L168.531 505.566C168.531 505.566 164.955 512.412 167.382 517.995C167.382 517.995 166.743 509.426 169.297 506.09L172.617 508.681C172.617 508.681 169.259 515.43 171.308 520.068C171.308 520.068 171.57 510.087 173.333 509.335C173.333 509.335 176.238 511.926 176.678 513.001C176.678 513.001 174.38 517.898 175.804 520.483C175.804 520.483 176.678 513.837 177.4 513.805C177.4 513.805 180.286 518.209 180.592 521.228C180.592 521.228 180.465 516.739 178.096 513.384C178.096 513.384 180.892 513.869 182.527 515.709C182.527 515.709 182.074 512.593 177.387 512.321C177.387 512.321 174.999 508.986 174.354 508.778C174.354 508.778 179.022 508.383 181.85 509.659C181.85 509.659 179.36 506.718 173.499 508.053L170.223 505.345C170.223 505.345 176.372 504.49 178.97 505.436C178.97 505.436 175.976 502.845 169.342 504.73L165.779 502.567C165.779 502.567 171.015 501.42 174.137 501.835C174.137 501.835 170.842 500.034 164.732 501.984L162.178 500.824C162.178 500.824 166.009 500.06 167.139 499.937C168.269 499.814 168.32 499.503 168.32 499.503C165.89 499.09 163.394 499.37 161.112 500.313C161.112 500.313 155.71 498.35 155.806 497.974Z" fill="#6C63FF"/>
    <path opacity="0.1" d="M177.03 529.272C189.076 529.272 198.841 527.599 198.841 525.535C198.841 523.471 189.076 521.798 177.03 521.798C164.984 521.798 155.219 523.471 155.219 525.535C155.219 527.599 164.984 529.272 177.03 529.272Z" fill="#6C63FF"/>
    <path d="M114.527 483.239C114.527 483.239 131.901 482.176 129.851 494.528C129.959 495.155 129.869 495.8 129.592 496.37C129.316 496.94 128.867 497.407 128.312 497.702C128.312 497.702 128.281 496.789 126.531 497.1C125.909 497.208 125.277 497.238 124.647 497.191C123.793 497.137 122.98 496.798 122.336 496.225C122.336 496.225 117.458 494.172 115.542 486.076C115.542 486.076 114.138 484.307 114.189 483.854L117.126 485.149C117.126 485.149 116.124 487.3 116.909 489.081C116.909 489.081 117.005 485.227 117.547 485.318C117.662 485.318 119.073 486.063 119.073 486.063C119.073 486.063 117.349 489.8 118.652 492.54C118.652 492.54 118.154 487.935 119.61 486.354L121.672 487.578C121.672 487.578 119.661 491.465 121.034 494.587C121.034 494.587 120.682 489.755 122.113 487.876L123.983 489.353C123.983 489.353 122.068 493.155 123.249 495.772C123.249 495.772 123.396 490.143 124.392 489.722C124.392 489.722 126.027 491.186 126.276 491.789C126.276 491.789 124.999 494.548 125.784 496.005C125.784 496.005 126.276 492.261 126.684 492.242C126.684 492.242 128.312 494.723 128.478 496.426C128.397 494.853 127.913 493.328 127.074 492.002C128.013 492.177 128.881 492.627 129.57 493.298C129.57 493.298 129.321 491.542 126.671 491.387C126.671 491.387 125.324 489.502 124.967 489.392C124.967 489.392 127.597 489.165 129.194 489.884C129.194 489.884 127.789 488.226 124.481 488.978L122.636 487.449C122.636 487.449 126.103 486.97 127.572 487.501C127.572 487.501 125.88 486.037 122.138 487.106L120.133 485.881C121.678 485.539 123.26 485.402 124.839 485.473C124.839 485.473 122.987 484.456 119.539 485.558L118.103 484.91C118.103 484.91 120.267 484.476 120.899 484.411C121.532 484.346 121.57 484.165 121.57 484.165C120.198 483.934 118.791 484.093 117.503 484.625C117.503 484.625 114.476 483.452 114.527 483.239Z" fill="#6C63FF"/>
    <path opacity="0.1" d="M126.493 500.883C133.284 500.883 138.79 499.937 138.79 498.771C138.79 497.605 133.284 496.66 126.493 496.66C119.701 496.66 114.195 497.605 114.195 498.771C114.195 499.937 119.701 500.883 126.493 500.883Z" fill="#6C63FF"/>
    <path d="M541.944 495.111C541.944 495.111 562.919 493.816 560.46 508.714C560.586 509.47 560.473 510.248 560.139 510.936C559.804 511.625 559.264 512.189 558.596 512.548C558.596 512.548 558.558 511.44 556.444 511.816C555.692 511.946 554.926 511.983 554.165 511.926C553.136 511.858 552.157 511.449 551.381 510.76C551.381 510.76 545.481 508.293 543.189 498.512C543.189 498.512 541.49 496.381 541.561 495.837L545.098 497.365C545.098 497.365 543.891 499.956 544.843 502.113C544.843 502.113 544.958 497.463 545.634 497.579C545.775 497.579 547.473 498.473 547.473 498.473C547.473 498.473 545.392 503.007 546.962 506.246C546.962 506.246 546.369 500.688 548.124 498.784L550.615 500.254C550.615 500.254 548.182 504.918 549.836 508.72C549.836 508.72 549.408 502.891 551.113 500.617L553.373 502.405C553.373 502.405 551.087 506.997 552.479 510.177C552.479 510.177 552.664 503.389 553.865 502.871C553.865 502.871 555.838 504.639 556.138 505.365C556.138 505.365 554.573 508.701 555.544 510.462C555.544 510.462 556.138 505.928 556.629 505.928C556.629 505.928 558.596 508.927 558.8 510.981C558.705 509.082 558.122 507.242 557.108 505.643C558.243 505.861 559.29 506.411 560.122 507.224C560.122 507.224 559.815 505.106 556.617 504.918C556.617 504.918 554.995 502.644 554.561 502.508C554.561 502.508 557.753 502.236 559.669 503.104C559.669 503.104 557.97 501.109 553.98 502.016L551.751 500.17C551.751 500.17 555.933 499.587 557.708 500.228C557.708 500.228 555.665 498.46 551.151 499.749L548.725 498.279C548.725 498.279 552.287 497.502 554.414 497.78C554.414 497.78 552.173 496.556 548.029 497.884L546.292 497.093C546.292 497.093 548.903 496.569 549.67 496.491C550.436 496.413 550.474 496.193 550.474 496.193C548.821 495.913 547.123 496.104 545.571 496.744C545.571 496.744 541.88 495.358 541.944 495.111Z" fill="#6C63FF"/>
    <path opacity="0.1" d="M556.386 516.421C564.585 516.421 571.231 515.281 571.231 513.876C571.231 512.47 564.585 511.33 556.386 511.33C548.187 511.33 541.541 512.47 541.541 513.876C541.541 515.281 548.187 516.421 556.386 516.421Z" fill="#6C63FF"/>
    <path d="M521.045 337.864C520.643 335.584 520.41 333.276 520.349 330.96C520.349 328.181 516.627 325.72 516.627 325.72C516.627 325.72 514.328 320.324 512.796 319.527C511.263 318.731 506.532 311.671 506.532 311.671C506.478 310.278 505.978 308.941 505.108 307.862C503.691 305.972 502.396 303.99 501.233 301.929C500.594 301.139 500.913 300.582 499.956 295.976C499.905 295.737 499.847 295.503 499.777 295.283C499.777 295.18 499.713 295.089 499.675 294.985C500.691 293.951 501.4 292.647 501.719 291.223C502.039 289.799 501.957 288.313 501.482 286.934C501.31 286.386 500.997 285.894 500.575 285.509C499.496 284.615 497.772 284.984 496.661 284.136L497.842 278.838C498.123 277.542 498.27 275.903 497.153 275.204C496.733 275.002 496.292 274.852 495.837 274.757C493.922 274.109 492.811 272.056 492.313 270.08C491.834 268.177 491.704 266.201 491.93 264.251C492.147 262.373 492.69 260.546 492.888 258.661C493.248 255.175 492.421 251.668 490.544 248.725C489.814 247.455 488.739 246.425 487.448 245.758C486.266 245.221 484.894 245.111 483.789 244.463C481.414 242.928 481.535 239.281 479.639 237.189C477.742 235.097 474.384 235.103 471.619 235.822C468.854 236.541 466.103 237.766 463.268 237.461C461.441 237.254 459.73 236.412 457.898 236.218C457.374 236.167 456.845 236.191 456.327 236.289V236.231C454.974 236.477 453.728 237.241 453.409 238.543C453.338 238.853 453.307 239.171 453.32 239.489C453.32 240.246 453.499 241.037 453.511 241.762C453.535 242.05 453.501 242.34 453.413 242.615C453.324 242.89 453.181 243.144 452.994 243.362C452.63 243.757 452.094 243.964 451.717 244.372C451.564 244.528 451.443 244.715 451.363 244.919C451.283 245.124 451.245 245.344 451.251 245.564C451.251 246.717 452.669 247.734 453.62 248.2H453.658C453.403 248.459 453.147 248.732 452.911 249.01C450.184 252.135 448.68 256.165 448.684 260.339C448.707 263.71 449.701 267 451.544 269.806C453.386 272.611 455.996 274.81 459.054 276.13L458.919 276.551C458.651 277.384 458.337 278.201 457.981 279C457.32 278.774 456.619 278.698 455.927 278.776C455.234 278.855 454.566 279.086 453.971 279.453C452.145 280.748 448.576 280.645 447.624 280.405C446.673 280.165 436.77 278.896 435.972 279.213C435.174 279.531 433.597 278.106 432.569 280.01C431.541 281.914 431.062 282.944 430.015 283.423C428.968 283.903 427.161 285.405 427.403 285.723C427.646 286.04 424.785 287.945 424.785 287.945C424.785 287.945 422.327 290.535 420.903 290.879C419.479 291.222 416.466 293.185 416.466 293.185L412.973 295.957C412.973 295.957 410.362 296.358 411.153 294.532C411.945 292.705 409.723 290.406 409.723 290.406C409.723 290.406 405.286 281.279 405.286 279.395C405.286 277.51 401.64 269.472 401.64 269.472L401.193 269.426L400.989 268.837C400.318 266.926 399.45 264.581 398.786 263.208C397.509 260.585 396.723 260.313 396.723 260.313C396.723 260.313 381.348 248.602 371.362 252.171C361.376 255.74 389.591 266.375 392.126 267.489C393.014 267.878 393.652 269.135 394.099 270.605C391.85 271.705 389.956 273.433 388.64 275.586C388.64 275.586 394.744 289.311 394.904 292.725C395.063 296.138 399.105 305.679 399.105 305.679C399.105 305.679 400.612 312.746 408.772 312.344C408.772 312.344 420.029 314.443 422.487 312.344C424.945 310.246 427.161 308.6 428.355 308.361C429.233 308.068 430.004 307.515 430.57 306.774C430.57 306.774 426.848 330.578 425.022 332.644C423.196 334.71 407.061 361.435 412.852 366.215C417.438 369.818 422.285 373.066 427.352 375.931C427.844 376.177 429.319 373.683 431.426 371.915C431.426 372.362 431.426 372.815 431.426 373.295C431.464 382.803 432.703 397.26 434.414 400.499C436.968 405.26 435.921 414.464 435.921 414.464C437.264 415.105 438.722 415.46 440.205 415.507C440.282 415.818 440.371 416.154 440.454 416.478C441.852 421.835 444.119 430.119 445.275 432.322C447.018 435.657 448.282 446.215 448.282 446.215C448.282 446.215 449.316 456.579 448.921 458.036C448.767 458.587 449.438 462.9 450.491 468.4C449.853 475.842 448.64 490.189 448.435 495.377C448.435 495.474 448.435 495.571 448.435 495.662V495.753C448.438 495.811 448.438 495.869 448.435 495.928C448.435 496.044 448.435 496.148 448.435 496.245C448.415 496.572 448.428 496.899 448.474 497.223C448.553 497.717 448.516 498.223 448.365 498.7C447.913 500.134 447.339 501.526 446.648 502.858C446.356 503.513 446.101 504.183 445.881 504.866C445.243 505.151 444.464 505.844 444.03 507.535C443.238 510.631 442.05 519.194 442.05 519.194C442.05 519.194 441.571 524.434 440.626 525.626C439.682 526.818 438.711 534.273 445.46 535.225C452.209 536.177 455.127 531.598 455.127 531.598L454.891 510.819V510.78C455.027 510.605 455.145 510.416 455.242 510.216V510.165C455.286 510.067 455.337 509.964 455.382 509.847L455.44 509.692L455.542 509.439C455.538 509.409 455.538 509.379 455.542 509.348C456.197 507.358 456.393 505.242 456.116 503.163V503.059V502.897C456.116 502.845 456.116 502.787 456.116 502.735V502.411C456.116 502.373 456.116 502.327 456.116 502.288C456.116 502.15 456.129 502.008 456.155 501.861C456.155 501.861 456.155 501.809 456.155 501.783L456.193 501.53V501.42C456.193 501.336 456.193 501.252 456.244 501.161C456.242 501.14 456.242 501.118 456.244 501.096C456.308 500.799 456.385 500.449 456.468 500.164V500.093L456.563 499.782C456.659 499.451 456.768 499.134 456.883 498.784V498.719C456.883 498.616 456.953 498.512 456.991 498.415V498.376C457.106 498.059 457.227 497.728 457.342 497.456L457.374 497.372L457.476 497.113L457.508 497.035L457.751 496.459L459.622 502.321C459.622 502.321 460.656 506.686 460.101 507.716C459.545 508.746 460.739 513.034 461.525 513.112L460.79 518.507C460.393 521.482 460.157 524.477 460.081 527.478C460.03 527.821 459.979 528.126 459.941 528.333C459.43 531.099 460.656 535.387 460.656 535.387C466.913 542.894 474.371 535.97 474.371 535.97C474.371 535.97 475.239 531.999 474.371 531.209C473.503 530.419 473.892 527.556 473.892 527.556C473.892 527.556 474.288 520.489 474.365 515.333C474.441 510.178 470.208 505.618 470.208 505.618L469.972 505.831C469.199 503.81 468.318 501.453 468.503 500.397C468.823 498.57 467.629 479.288 467.629 479.288C468.07 474.118 468.164 468.925 467.909 463.742C468.012 462.868 468.107 462.007 468.203 461.152C468.682 457.006 469.072 453.463 469.225 451.604V451.384C469.263 450.885 469.282 450.529 469.276 450.361C469.276 449.713 469.276 448.974 469.34 448.165C469.487 445.937 469.831 443.456 469.831 443.456L471.491 433.215C471.491 433.215 472.768 428.215 474.588 425.443L474.805 425.093C474.875 424.97 474.946 424.834 475.022 424.691L475.054 424.633C475.125 424.497 475.201 424.355 475.271 424.206L475.303 424.147C475.559 423.636 475.833 423.046 476.121 422.398C476.121 422.347 476.165 422.301 476.184 422.249L476.401 421.757C476.401 421.692 476.453 421.628 476.485 421.563C476.516 421.498 476.619 421.233 476.689 421.071C476.72 421.005 476.748 420.938 476.772 420.87C476.855 420.675 476.944 420.475 477.027 420.267L477.149 419.969C477.206 419.82 477.27 419.672 477.334 419.523L477.487 419.127C477.532 419.03 477.57 418.933 477.608 418.836L477.781 418.389C477.781 418.324 477.838 418.253 477.864 418.188C478.317 417.042 478.751 415.908 479.141 414.878C479.262 414.555 479.383 414.231 479.492 413.946C483.553 414.198 486.311 414.425 486.311 414.425C486.311 414.425 487.588 405.143 487.179 399.035C486.911 394.864 487.677 389.617 488.182 386.728C488.239 386.411 488.29 386.126 488.341 385.867L488.45 385.958C490.436 387.545 491.86 382.305 491.86 382.305C491.86 382.305 491.323 377.414 490.583 371.488L490.506 370.898C491.65 371.146 492.808 371.325 493.973 371.436C493.973 371.436 494.611 371.377 495.486 371.267C497.906 372.688 500.46 373.86 503.11 374.765L507.33 366.863C508.123 365.225 509.053 363.658 510.108 362.18C511.385 360.593 515.893 355.515 515.816 354.563C515.739 353.61 517.323 348.131 518.906 345.669C520.49 343.208 521.122 338.259 521.045 337.864ZM503.448 343.895C501.782 344.607 500.198 348.578 500.122 349.769C500.045 350.961 498.296 356.195 496.476 356.83C494.797 357.413 491.591 360.405 491.081 360.884C490.557 360.93 489.963 361.001 489.344 361.105C488.648 356.098 487.958 351.952 487.518 351.117C486.241 348.733 488.916 341.116 488.916 341.116C488.916 341.116 489.178 333.421 490.832 331.594C492.485 329.768 492.109 325.163 492.109 325.163C492.109 325.163 492.504 323.258 492.664 322.39C492.824 321.522 495.02 322.39 495.039 322.39C495.039 322.39 499.317 324.767 499.956 328.336C500.594 331.905 505.268 338.098 505.268 338.098C505.268 338.098 504.553 340.242 505.268 341.336C505.983 342.431 505.115 343.182 503.448 343.895Z" fill="url(#paint0_linear)"/>
    <path d="M388.819 276.072C390.121 273.894 392.026 272.154 394.298 271.068C396.569 269.983 399.105 269.601 401.589 269.97V279.239H396.041L391.699 278.125L388.819 276.072Z" fill="#4C4981"/>
    <path opacity="0.1" d="M388.819 276.072C390.121 273.894 392.026 272.154 394.298 271.068C396.569 269.983 399.105 269.601 401.589 269.97V279.239H396.041L391.699 278.125L388.819 276.072Z" fill="black"/>
    <path d="M402.004 272.425L395.204 277.257C395.204 277.257 395.147 276.292 394.975 274.97C394.636 272.47 393.876 268.72 392.235 267.994C389.739 266.88 361.945 256.271 371.804 252.702C381.662 249.133 396.788 260.831 396.788 260.831C396.788 260.831 397.567 261.103 398.812 263.713C399.45 265.086 400.325 267.424 400.983 269.335C401.589 271.058 402.004 272.425 402.004 272.425Z" fill="#AE6E79"/>
    <path d="M456.328 279.867L457.1 279.498L459.271 282.011L457.496 285.852L454.47 284.622L455.172 281.551L456.328 279.867Z" fill="#4C4981"/>
    <path d="M446.041 504.827C446.041 504.827 444.088 504.594 443.309 507.684C442.53 510.773 441.355 519.343 441.355 519.343C441.355 519.343 440.889 524.57 439.95 525.762C439.011 526.953 438.079 534.396 444.713 535.341C451.347 536.287 454.24 531.721 454.24 531.721L454.004 510.948L446.041 504.827Z" fill="#444053"/>
    <path d="M469.193 505.76C469.193 505.76 473.369 510.294 473.292 515.437C473.215 520.58 472.819 527.634 472.819 527.634C472.819 527.634 472.436 530.49 473.292 531.28C474.148 532.071 473.292 536.035 473.292 536.035C473.292 536.035 465.949 542.946 459.781 535.452C459.781 535.452 458.581 531.17 459.079 528.411C459.577 525.652 460.969 513.248 460.969 513.248L469.193 505.76Z" fill="#444053"/>
    <path d="M479.537 411.044C479.537 411.044 475.323 423.001 473.522 425.773C471.721 428.545 470.483 433.546 470.483 433.546L468.842 443.76C468.522 446.044 468.338 448.345 468.293 450.652C468.369 452.951 464.232 486.451 464.232 486.451L457.675 494.93C457.675 494.93 454.788 500.87 455.255 503.35C455.721 505.831 454.942 509.769 453.978 510.955C453.978 510.955 453.824 518.727 453.588 520.457C453.352 522.186 454.45 527.115 453.588 527.983C452.726 528.851 441.252 528.463 440.939 527.031C440.627 525.6 442.344 518.714 442.344 518.714L443.359 512.062C443.359 512.062 445.39 508.422 444.924 507.23C444.458 506.038 445.779 503.273 445.856 503.033C445.933 502.793 448.046 498.914 447.656 497.411C447.267 495.908 450.115 463.95 450.115 463.95L458.153 406.685L479.537 411.044Z" fill="#AE6E79"/>
    <path opacity="0.1" d="M479.537 411.043C479.537 411.043 478.898 412.844 478.023 415.208C476.632 418.939 474.627 424.076 473.522 425.773C471.728 428.545 470.476 433.545 470.476 433.545L468.835 443.766C468.518 446.05 468.337 448.352 468.293 450.658C468.293 451.565 467.693 457.349 466.926 464.014C465.745 474.203 464.232 486.458 464.232 486.458L457.675 494.936C457.675 494.936 457.342 495.584 456.927 496.607C456.104 498.551 454.942 501.705 455.255 503.331C455.721 505.786 454.942 509.743 453.978 510.935C453.978 510.935 453.818 518.708 453.588 520.437C453.358 522.167 454.45 527.089 453.588 527.964C452.726 528.838 441.252 528.443 440.939 527.018C440.627 525.593 442.344 518.701 442.344 518.701L443.359 512.043C443.359 512.043 445.39 508.402 444.917 507.211C444.445 506.019 445.779 503.253 445.856 503.013C445.933 502.774 448.046 498.894 447.656 497.391C447.356 496.245 448.933 477.48 449.668 468.581C449.917 465.782 450.076 463.962 450.076 463.962L456.991 414.697L457.553 410.726L458.115 406.697L479.537 411.043Z" fill="black"/>
    <path d="M472.514 530.166C472.584 531.04 461.499 532.31 459.916 531.358C458.333 530.406 459.916 518.604 459.916 518.604L460.637 513.222C459.865 513.137 458.69 508.862 459.233 507.832C459.776 506.803 458.767 502.45 458.767 502.45L456.928 496.62L455.804 493.051C453.978 488.964 451.335 477.305 449.694 468.6C448.659 463.133 448.002 458.826 448.149 458.275C448.538 456.85 447.51 446.474 447.51 446.474C447.51 446.474 446.233 435.935 444.547 432.613C443.405 430.41 441.176 422.139 439.797 416.802C439.095 414.062 438.609 412.093 438.609 412.093C438.609 412.093 450.409 411.089 457.566 410.739C460.855 410.577 463.166 410.558 462.898 410.83C462.63 411.102 462.559 412.553 462.572 414.651C462.604 420.086 463.351 429.646 464.143 432.218C465.235 435.78 466.326 446.467 465.86 447.504C465.394 448.54 465.548 455.425 465.548 455.425C466.352 458.222 466.815 461.109 466.927 464.021C467.176 469.179 467.087 474.348 466.658 479.495C466.658 479.495 467.827 498.745 467.514 500.565C467.201 502.385 470.011 508.092 470.011 509.199C470.011 510.307 470.79 517.833 470.79 517.833C470.79 517.833 472.462 529.298 472.514 530.166Z" fill="#AE6E79"/>
    <path d="M478.675 298.8L477.334 300.27L476.459 301.229L471.351 306.799L458.154 308.309L451.13 306.404L449.394 305.932C449.394 305.932 449.394 302.356 449.706 298.068C450.153 292.569 451.22 285.891 453.767 284.071C455.043 283.058 456.061 281.75 456.736 280.256C457.246 279.226 457.673 278.156 458.013 277.056C458.064 276.914 458.103 276.778 458.147 276.635C458.722 274.716 459.136 272.75 459.386 270.76C459.386 270.76 461.072 269.815 463.415 268.714C469.525 265.818 480.08 261.822 476.408 270.76C475.869 272.069 475.408 273.41 475.029 274.776C474.972 274.977 474.921 275.178 474.876 275.372C473.65 280.347 474.461 283.365 475.374 285.03C475.528 285.318 475.706 285.593 475.904 285.852C476.153 286.2 476.452 286.508 476.791 286.765L478.311 296.553L478.439 297.362L478.675 298.8Z" fill="#AE6E79"/>
    <path opacity="0.1" d="M476.415 271.24C475.719 272.937 476.753 269.854 476.415 271.24C473.631 273.248 467.073 278.967 463.389 278.967C460.899 278.967 460.152 278.507 458.02 277.529C458.665 275.479 459.124 273.374 459.392 271.24C459.392 271.24 481.491 258.881 476.415 271.24Z" fill="black"/>
    <path d="M482.04 260.831C482.036 265.096 480.478 269.21 477.664 272.38C474.85 275.55 470.98 277.553 466.799 278.002C466.211 278.06 465.618 278.099 465.017 278.099C461.651 278.099 458.36 277.086 455.56 275.189C452.761 273.291 450.579 270.594 449.291 267.439C448.002 264.284 447.665 260.812 448.322 257.462C448.979 254.112 450.6 251.035 452.981 248.62C455.361 246.205 458.395 244.561 461.697 243.894C464.999 243.228 468.421 243.57 471.532 244.877C474.642 246.184 477.301 248.397 479.171 251.237C481.041 254.077 482.04 257.415 482.04 260.831Z" fill="#AE6E79"/>
    <path opacity="0.1" d="M484.46 337.379L482.033 343.798C482.033 343.798 480.06 343.882 476.983 343.979C466.594 344.316 443.704 344.743 442.683 342.036C442.454 341.349 442.333 340.63 442.325 339.905C442.191 335.779 444.087 329.444 444.087 329.444C444.087 329.444 445.179 316.768 445.179 316.218C445.179 315.667 444.241 306.787 444.241 306.787L446.118 299.662L451.347 295.937C451.347 295.937 453.69 299.584 455.095 299.895C456.5 300.206 458.377 301.961 458.377 301.961C458.377 301.961 462.981 304.811 464.468 303.224C465.956 301.637 477.506 294.668 477.506 294.668L483.598 301.482L484.46 337.379Z" fill="black"/>
    <path d="M484.46 338.363L482.034 344.775C482.034 344.775 480.061 344.866 476.983 344.963H476.683C475.355 345.009 473.835 345.054 472.214 345.086C463.958 345.281 452.586 345.332 446.642 344.439C444.407 344.115 442.945 343.648 442.702 343.014C442.568 342.632 442.473 342.237 442.421 341.835C442.383 341.537 442.357 341.187 442.345 340.883C442.211 336.757 444.107 330.422 444.107 330.422C444.107 330.422 445.199 317.746 445.199 317.196C445.199 316.645 444.26 307.765 444.26 307.765L446.137 300.64L449.732 298.088L451.367 296.922C451.916 297.757 452.516 298.557 453.161 299.318C453.665 300.005 454.339 300.543 455.115 300.879C456.526 301.197 458.396 302.946 458.396 302.946C458.396 302.946 463 305.796 464.488 304.209C465.618 302.997 472.641 298.638 475.885 296.65C476.881 296.035 477.526 295.652 477.526 295.652L478.343 296.572L483.617 302.466L484.46 338.363Z" fill="white"/>
    <path opacity="0.1" d="M402.004 272.425L395.204 277.257C395.204 277.257 395.147 276.292 394.975 274.971C398.333 273.533 400.376 270.352 400.964 269.335C401.589 271.058 402.004 272.425 402.004 272.425Z" fill="black"/>
    <path d="M425.897 288.825L424.416 288.424C424.416 288.424 421.989 291.015 420.585 291.358C419.18 291.701 416.217 293.651 416.217 293.651L412.776 296.423C412.776 296.423 410.222 296.825 410.982 294.998C411.742 293.172 409.577 290.879 409.577 290.879C409.577 290.879 405.203 281.772 405.203 279.867C405.203 277.963 401.589 269.97 401.589 269.97C401.589 269.97 397.056 278.922 388.781 276.072C388.781 276.072 394.796 289.771 394.949 293.178C395.102 296.585 399.087 306.087 399.087 306.087C399.087 306.087 400.574 313.141 408.613 312.746C408.613 312.746 419.704 314.838 422.123 312.746C424.543 310.654 426.727 309.008 427.87 308.769C429.013 308.529 430.054 307.188 430.054 307.188V297.77L425.897 288.825Z" fill="#4C4981"/>
    <path opacity="0.1" d="M411.997 297.771C411.997 297.771 413.951 305.142 412.699 305.932L411.997 297.771Z" fill="black"/>
    <path opacity="0.1" d="M476.983 344.931C466.594 345.267 443.704 345.688 442.683 342.987C442.454 342.301 442.333 341.581 442.325 340.856L476.261 342.67L476.983 344.931Z" fill="black"/>
    <path opacity="0.1" d="M479.537 411.044C479.537 411.044 478.899 412.844 478.024 415.208C473.714 414.943 468.006 414.664 462.585 414.626C460.669 414.626 458.792 414.626 457.017 414.69C453.25 414.807 449.994 415.118 447.919 415.714C445.295 416.533 442.553 416.892 439.81 416.776C439.107 414.036 438.622 412.067 438.622 412.067C438.622 412.067 450.422 411.063 457.579 410.713L458.141 406.685L479.537 411.044Z" fill="black"/>
    <path d="M488.674 382.052L487.346 384.902C487.346 384.902 487.161 385.75 486.925 387.098C486.427 389.999 485.648 395.233 485.942 399.404C486.331 405.506 485.08 414.768 485.08 414.768C485.08 414.768 456.347 412.313 447.919 414.768C439.491 417.223 435.341 414.768 435.341 414.768C435.341 414.768 436.362 405.584 433.859 400.829C432.155 397.591 430.954 383.134 430.916 373.625C430.916 369.24 431.133 365.917 431.676 365.243C433.393 363.106 440.73 341.718 440.73 341.718L442.403 341.809L446.872 342.049L472.284 343.409L476.275 343.623L476.696 344.918L488.674 382.052Z" fill="#444053"/>
    <path d="M501.322 372.543L501.559 375.082C501.559 375.082 488.974 370.924 489.612 365.813C490.251 360.703 489.612 361.279 489.612 361.279L499.726 362.147L501.322 372.543Z" fill="#4C4981"/>
    <path opacity="0.1" d="M501.322 372.543L501.559 375.082C501.559 375.082 488.974 370.924 489.612 365.813C490.251 360.703 489.612 361.279 489.612 361.279L499.726 362.147L501.322 372.543Z" fill="black"/>
    <path opacity="0.1" d="M420.393 299.817C421.677 300.925 423.192 301.724 424.824 302.155C424.351 302.051 423.912 301.829 423.547 301.508C422.646 300.86 421.791 300.154 420.922 299.467C420.22 298.91 419.345 297.984 418.483 297.757C419.048 298.509 419.688 299.199 420.393 299.817Z" fill="black"/>
    <path opacity="0.1" d="M420.584 303.153C420.989 303.617 421.317 304.144 421.555 304.714C421.958 306.326 421.933 308.018 421.484 309.617L419.467 304.682C419.116 303.84 418.764 302.998 418.343 302.194C418.158 301.851 416.996 300.42 417.13 300.122C417.487 299.28 420.207 302.68 420.584 303.153Z" fill="black"/>
    <path opacity="0.1" d="M476.881 330.487C478.257 330.318 479.543 329.707 480.553 328.744C478.477 329.01 476.511 329.839 474.468 330.273C472.571 330.72 470.582 330.534 468.798 329.742C471.148 330.908 474.378 330.946 476.881 330.487Z" fill="black"/>
    <path opacity="0.1" d="M471.013 315.984C470.641 316.04 470.262 315.945 469.959 315.719C468.401 314.812 466.865 313.866 465.349 312.882C463.874 311.916 462.093 310.938 460.835 309.721C463.932 312.558 466.818 314.954 471.013 315.984Z" fill="black"/>
    <path opacity="0.1" d="M475.342 332.786C476.16 332.824 476.979 332.756 477.781 332.585C478.592 332.414 479.308 331.937 479.786 331.251C479.496 331.183 479.191 331.232 478.936 331.387C476.462 332.443 473.746 332.773 471.096 332.339C472.366 332.89 473.994 332.78 475.342 332.786Z" fill="black"/>
    <path opacity="0.1" d="M460.554 369.564C458.928 370.061 457.258 370.393 455.568 370.555C454.252 370.616 452.934 370.59 451.622 370.477L445.237 370.069L442.044 369.862C441.668 369.862 440.129 369.862 440.889 369.091C441.272 368.715 443.404 368.955 443.953 368.935C445.013 368.901 446.077 368.881 447.146 368.877C449.259 368.877 451.379 368.877 453.492 369.007C455.861 369.123 458.192 369.304 460.554 369.564Z" fill="black"/>
    <path opacity="0.1" d="M453.154 372.77C452.069 372.724 450.671 373.379 449.553 373.521C448.303 373.671 447.044 373.721 445.786 373.67C443.298 373.61 440.839 373.101 438.526 372.167C443.398 372.42 448.283 372.569 453.154 372.77Z" fill="black"/>
    <path opacity="0.1" d="M439.477 376.164C439.949 376.261 440.415 376.391 440.869 376.552C443.564 377.33 446.43 376.643 449.17 375.957C448.486 376.999 447.254 377.446 446.022 377.731C444.018 378.247 441.928 378.324 439.892 377.958C439.254 377.829 437.651 377.595 437.338 376.922C436.815 375.931 438.877 376.067 439.477 376.164Z" fill="black"/>
    <path opacity="0.1" d="M454.584 381.275C455.392 381.442 456.19 381.659 456.972 381.922C460.005 382.687 463.153 381.637 466.199 380.931C469.86 380.088 473.614 379.735 477.366 379.882C476.696 379.882 475.629 380.478 474.972 380.679C474.11 380.944 473.235 381.19 472.36 381.411C470.643 381.838 468.9 382.188 467.144 382.441C463.599 382.96 460.012 383.119 456.436 382.913C454.802 382.823 451.967 382.991 450.568 382.156C451.777 381.427 453.187 381.118 454.584 381.275Z" fill="black"/>
    <path opacity="0.1" d="M455.728 283.585C455.728 283.585 455.881 290.879 454.713 294.208C454.342 295.244 453.768 297.155 453.142 299.299C452.459 301.676 451.712 304.338 451.137 306.424C450.563 308.51 450.179 309.909 450.179 309.909C450.179 309.909 447.542 331.698 446.859 342.081C446.859 342.262 446.859 342.45 446.821 342.625C446.783 343.208 446.719 343.817 446.623 344.445C445.103 354.757 436.337 370.659 433.393 371.928C432.476 372.355 431.637 372.94 430.916 373.658C430.916 369.272 431.133 365.95 431.676 365.276C433.393 363.139 440.73 341.751 440.73 341.751L442.403 341.841C442.364 341.544 442.339 341.194 442.326 340.889C442.192 336.763 444.088 330.429 444.088 330.429C444.088 330.429 445.18 317.753 445.18 317.202C445.18 316.652 444.241 307.771 444.241 307.771L446.119 300.646L449.713 298.094C450.16 292.595 451.227 285.917 453.774 284.097C455.05 283.084 456.068 281.776 456.743 280.282C457.248 280.353 456.328 279.9 456.328 279.9L455.728 283.585Z" fill="black"/>
    <path d="M457.1 279.498C456.45 279.273 455.757 279.196 455.074 279.274C454.391 279.353 453.733 279.584 453.148 279.952C451.348 281.247 447.836 281.137 446.897 280.904C445.959 280.671 436.202 279.395 435.404 279.712C434.606 280.029 433.061 278.604 432.046 280.509C431.031 282.413 430.564 283.436 429.549 283.909C428.534 284.382 426.733 285.891 426.995 286.209C427.257 286.526 424.441 288.424 424.441 288.424L430.137 307.208C430.137 307.208 426.465 330.966 424.671 333.026C422.877 335.086 406.946 361.778 412.648 366.533C417.162 370.133 421.939 373.381 426.938 376.248C427.576 376.566 429.824 372.291 432.946 370.943C436.068 369.596 445.754 351.771 446.354 341.634C446.955 331.497 449.713 308.924 449.713 308.924C449.713 308.924 453.071 296.566 454.24 293.236C455.408 289.907 455.255 282.614 455.255 282.614L457.1 279.498Z" fill="#4C4981"/>
    <path opacity="0.1" d="M488.673 382.052L487.345 384.902C487.345 384.902 487.16 385.75 486.924 387.097C486.687 387.067 486.465 386.966 486.285 386.806C484.332 385.219 472.877 373.262 472.309 362.646C471.906 354.815 472.098 348.066 472.226 345.06C472.264 344.115 472.302 343.545 472.302 343.422C472.302 343.422 481.203 332.488 480.188 328.615C479.172 324.741 476.829 304.001 476.829 304.001L476.484 301.281L475.891 296.682L474.473 285.554L475.942 285.904C476.191 286.251 476.49 286.559 476.829 286.817L478.349 296.604L483.623 302.499L484.485 338.382L482.059 344.795C482.059 344.795 480.086 344.885 477.008 344.983H476.708L488.673 382.052Z" fill="black"/>
    <path d="M493.59 322.818C493.59 322.818 491.406 321.943 491.253 322.818C491.099 323.692 490.704 325.584 490.704 325.584C490.704 325.584 491.093 330.182 489.427 332.002C487.76 333.823 487.511 341.504 487.511 341.504C487.511 341.504 484.88 349.109 486.126 351.486C486.579 352.347 487.281 356.668 487.984 361.849C488.431 365.088 488.871 368.644 489.261 371.896C489.969 377.803 490.499 382.693 490.499 382.693C490.499 382.693 489.088 387.92 487.134 386.333C485.181 384.746 473.726 372.789 473.164 362.173C472.781 354.718 472.934 348.241 473.062 345.048C473.113 343.694 473.164 342.929 473.164 342.929C473.164 342.929 482.065 331.996 481.049 328.116C480.034 324.236 477.691 303.503 477.691 303.503L477.282 300.297L476.842 296.851L476.74 296.093L475.329 285.082C475.578 285.14 484.338 287.148 485.493 288.32C486.649 289.493 493.794 291.17 493.794 291.17C494.871 291.467 495.851 292.051 496.63 292.862C497.41 293.673 497.96 294.682 498.225 295.782C498.295 296.002 498.346 296.235 498.397 296.475C499.336 301.074 499.036 301.624 499.674 302.421C500.313 303.218 493.59 322.818 493.59 322.818Z" fill="#4C4981"/>
    <path opacity="0.1" d="M489.312 371.889C486.119 371.241 481.382 369.745 481.49 366.442C481.586 363.352 485.251 362.238 488.028 361.843C488.475 365.068 488.916 368.637 489.312 371.889Z" fill="black"/>
    <path d="M499.215 370.244C499.088 370.522 498.577 370.762 497.849 370.976C496.141 371.388 494.406 371.676 492.658 371.837C492.658 371.837 481.803 370.963 481.957 365.969C482.072 362.387 486.975 361.435 489.727 361.221C490.336 361.163 490.948 361.137 491.56 361.143C491.56 361.143 499.681 369.221 499.215 370.244Z" fill="#AE6E79"/>
    <path opacity="0.1" d="M499.215 370.244C499.087 370.522 498.577 370.762 497.849 370.976C495.02 367.135 491.074 362.206 489.14 361.772L489.727 361.221C490.336 361.163 490.948 361.137 491.56 361.143C491.56 361.143 499.681 369.22 499.215 370.244Z" fill="black"/>
    <path d="M496.483 301.89L499.675 302.369C500.828 304.429 502.107 306.412 503.506 308.309C504.364 309.39 504.856 310.723 504.911 312.111C504.911 312.111 509.597 319.158 511.079 319.948C512.56 320.738 514.826 326.127 514.826 326.127C514.826 326.127 518.498 328.582 518.498 331.354C518.563 333.666 518.798 335.97 519.2 338.246C519.283 338.641 518.657 343.558 517.093 346.019C515.529 348.48 513.965 353.908 514.048 354.88C514.131 355.851 509.674 360.903 508.429 362.484C507.39 363.962 506.475 365.526 505.696 367.161L501.559 375.082C501.559 375.082 492.811 362.011 489.612 361.299C489.612 361.299 493.201 357.814 494.995 357.179C496.789 356.544 498.513 351.35 498.59 350.132C498.666 348.914 500.23 344.983 501.865 344.302C503.5 343.622 504.368 342.877 503.666 341.763C502.963 340.649 503.666 338.525 503.666 338.525C503.666 338.525 499.056 332.345 498.43 328.809C497.804 325.272 493.59 322.869 493.59 322.869L491.17 316.846L496.483 301.89Z" fill="#4C4981"/>
    <path opacity="0.1" d="M508.097 331.458C509.864 329.945 512.087 329.09 514.399 329.036C512.918 329.295 511.36 329.625 510.274 330.674C509.848 331.129 509.465 331.623 509.131 332.151C508.761 332.689 505.747 336.575 505.301 335.96C504.553 335.059 507.491 331.983 508.097 331.458Z" fill="black"/>
    <path opacity="0.1" d="M501.022 327.708C501.5 327.666 501.959 327.496 502.351 327.215C502.742 326.934 503.053 326.552 503.251 326.108C503.631 325.216 503.866 324.266 503.947 323.297C504.175 321.675 504.497 320.068 504.911 318.485C505.035 318.172 505.087 317.834 505.064 317.497C505.041 317.161 504.943 316.834 504.777 316.541C504.605 316.035 504.374 315.553 504.087 315.104C503.513 315.751 503.347 317.26 503.11 318.128C502.817 319.204 502.548 320.285 502.293 321.367C502.159 321.885 501.099 327.708 501.022 327.708Z" fill="black"/>
    <path opacity="0.1" d="M498.258 295.73C497.943 296.147 497.581 296.526 497.179 296.857C495.902 297.887 494.21 298.755 494.05 300.38C494.095 300.909 494.03 301.44 493.859 301.941C493.45 302.654 492.448 302.589 491.65 302.453C490.976 302.392 490.331 302.15 489.779 301.754C488.942 301.028 488.866 299.733 488.227 298.819C487.839 298.348 487.35 297.974 486.796 297.725C486.242 297.477 485.64 297.362 485.035 297.388C483.841 297.349 482.653 297.621 481.459 297.673C480.692 297.712 479.922 297.66 479.167 297.517C478.918 297.479 478.67 297.427 478.426 297.362C477.893 297.229 477.372 297.049 476.868 296.824C476.608 296.719 476.354 296.598 476.109 296.462C475.309 296.045 474.569 295.523 473.906 294.907C472.737 293.819 471.767 292.316 471.863 290.703C471.92 289.712 472.361 288.799 472.501 287.821C472.98 285.023 471.148 282.38 469.162 280.379C468.37 279.582 467.527 278.811 466.736 278.002C465.503 276.848 464.529 275.439 463.881 273.869C463.349 272.199 463.175 270.432 463.371 268.687C463.55 266.919 463.599 265.139 463.517 263.363C462.93 257.067 457.63 252.242 452.331 249.618L452.095 249.495C453.667 247.665 455.602 246.192 457.774 245.172C459.945 244.151 462.305 243.608 464.698 243.575C467.091 243.543 469.463 244.023 471.661 244.984C473.858 245.946 475.831 247.366 477.451 249.154C479.071 250.941 480.3 253.055 481.06 255.357C481.819 257.659 482.092 260.098 481.859 262.514C481.626 264.93 480.894 267.27 479.709 269.379C478.525 271.489 476.915 273.321 474.985 274.757C474.927 274.957 474.876 275.158 474.832 275.352C473.606 280.327 474.417 283.345 475.33 285.01C475.579 285.068 484.339 287.076 485.495 288.249C486.65 289.421 493.795 291.099 493.795 291.099C494.881 291.392 495.869 291.977 496.654 292.792C497.44 293.607 497.994 294.622 498.258 295.73Z" fill="black"/>
    <path d="M450.971 244.929C451.322 244.521 451.852 244.314 452.209 243.919C453.314 242.701 452.209 240.713 452.612 239.106C453.046 237.325 455.204 236.548 457.004 236.736C458.805 236.923 460.491 237.766 462.291 237.973C465.088 238.29 467.795 237.059 470.521 236.341C473.248 235.622 476.542 235.583 478.42 237.701C480.297 239.819 480.169 243.427 482.506 244.962C483.585 245.668 484.945 245.745 486.113 246.257C487.392 246.923 488.453 247.951 489.165 249.217C491.015 252.164 491.83 255.659 491.477 259.134C491.279 261.012 490.743 262.839 490.525 264.717C490.305 266.668 490.435 268.643 490.909 270.547C491.4 272.49 492.467 274.588 494.376 275.21C494.817 275.309 495.245 275.459 495.653 275.657C496.757 276.357 496.61 278.002 496.329 279.284L495.193 284.602C496.285 285.444 497.983 285.082 499.024 285.969C499.441 286.355 499.749 286.847 499.918 287.394C500.431 288.881 500.487 290.491 500.077 292.011C499.668 293.531 498.813 294.889 497.626 295.905C496.349 296.935 494.657 297.803 494.497 299.422C494.546 299.95 494.48 300.483 494.305 300.983C493.903 301.696 492.894 301.631 492.096 301.495C491.425 301.432 490.782 301.191 490.232 300.795C489.389 300.07 489.319 298.774 488.68 297.861C488.292 297.39 487.802 297.017 487.248 296.768C486.695 296.52 486.092 296.404 485.488 296.43C484.287 296.391 483.106 296.663 481.906 296.721C479.137 296.836 476.435 295.846 474.378 293.962C473.203 292.867 472.239 291.371 472.328 289.752C472.386 288.767 472.826 287.847 472.967 286.869C473.439 284.078 471.613 281.428 469.628 279.427C467.642 277.425 465.311 275.579 464.341 272.917C463.128 269.62 464.302 265.941 463.977 262.444C463.389 256.141 458.096 251.322 452.79 248.693C451.609 248.077 449.598 246.516 450.971 244.929Z" fill="#444053"/>
    <path opacity="0.1" d="M492.728 299.325C491.885 298.593 491.815 297.304 491.176 296.391C490.788 295.92 490.298 295.545 489.745 295.296C489.191 295.047 488.589 294.929 487.984 294.953C486.783 294.914 485.596 295.186 484.402 295.244C481.623 295.368 478.909 294.374 476.848 292.479C475.674 291.39 474.716 289.888 474.805 288.275C474.863 287.284 475.303 286.364 475.444 285.393C475.923 282.594 474.09 279.945 472.104 277.944C470.119 275.942 467.795 274.096 466.818 271.434C465.611 268.144 466.818 264.465 466.46 260.961C465.866 254.658 460.573 249.839 455.274 247.209C454.035 246.594 452.024 245.033 453.397 243.446C453.741 243.038 454.271 242.831 454.629 242.436C455.733 241.224 454.629 239.229 455.037 237.63C455.116 237.311 455.252 237.01 455.44 236.742C454.105 236.995 452.886 237.759 452.56 239.055C452.171 240.661 453.262 242.649 452.158 243.867C451.8 244.262 451.27 244.47 450.919 244.871C449.546 246.458 451.558 248.026 452.796 248.634C458.102 251.264 463.395 256.09 463.983 262.386C464.308 265.89 463.134 269.569 464.347 272.866C465.317 275.521 467.648 277.4 469.633 279.375C471.619 281.351 473.464 284.019 472.973 286.818C472.704 287.765 472.49 288.727 472.334 289.7C472.245 291.313 473.209 292.815 474.384 293.904C476.441 295.8 479.154 296.794 481.931 296.669C483.131 296.611 484.312 296.346 485.513 296.378C486.118 296.355 486.72 296.473 487.273 296.722C487.827 296.971 488.316 297.345 488.705 297.816C489.344 298.729 489.414 300.025 490.257 300.75C490.808 301.143 491.451 301.382 492.121 301.443C492.919 301.592 493.928 301.644 494.33 300.938C494.474 300.65 494.536 300.327 494.509 300.005C493.867 299.941 493.252 299.707 492.728 299.325Z" fill="black"/>
    <path d="M399.782 260.831H355.618V216.682H399.814L399.782 260.831ZM399.144 194.265H356.256C356.256 125.658 420.54 129.667 420.54 86.2636C420.54 62.3562 401.251 43.2031 377.684 43.2031C354.117 43.2031 334.835 63.8525 334.835 86.9437H291.979C291.959 75.5206 294.163 64.206 298.463 53.6486C302.763 43.0913 309.076 33.4989 317.038 25.4215C325 17.3442 334.456 10.9407 344.863 6.57835C355.27 2.21597 366.424 -0.0194956 377.684 0.000128084C425.022 0.000128084 463.39 38.3128 463.39 86.2636C463.39 140.536 399.112 146.715 399.112 194.265H399.144Z" fill="#6C63FF"/>
    <path opacity="0.1" d="M179.507 247.682H168.116V236.269H179.507V247.682ZM179.335 230.518H168.289C168.289 212.835 184.858 213.865 184.858 202.666C184.852 201.2 184.561 199.751 184.003 198.399C183.445 197.048 182.629 195.821 181.603 194.79C180.578 193.758 179.361 192.942 178.025 192.387C176.688 191.832 175.256 191.55 173.812 191.557C170.895 191.626 168.117 192.838 166.062 194.939C164.007 197.041 162.835 199.868 162.791 202.828H151.745C151.818 196.947 154.167 191.331 158.284 187.19C162.402 183.05 167.958 180.716 173.756 180.694C179.553 180.671 185.127 182.96 189.276 187.068C193.425 191.175 195.817 196.773 195.935 202.653C195.904 216.643 179.335 218.237 179.335 230.492V230.518Z" fill="#6C63FF"/>
    <path opacity="0.1" d="M265.755 326.97H254.365V315.589H265.755V326.97ZM265.589 309.812H254.543C254.543 292.122 271.112 293.159 271.112 281.96C271.106 280.495 270.816 279.045 270.258 277.694C269.699 276.343 268.884 275.117 267.858 274.086C266.832 273.055 265.616 272.239 264.279 271.685C262.942 271.131 261.51 270.85 260.066 270.858C257.137 270.911 254.343 272.119 252.276 274.224C250.208 276.33 249.029 279.169 248.988 282.141H237.942C238.016 276.26 240.364 270.644 244.482 266.504C248.599 262.363 254.155 260.03 259.953 260.007C265.75 259.984 271.324 262.273 275.474 266.381C279.623 270.489 282.014 276.086 282.133 281.966C282.152 295.957 265.589 297.557 265.589 309.812Z" fill="#6C63FF"/>
    <path opacity="0.1" d="M318.202 186.609H309.946V178.376H318.202V186.609ZM318.081 174.166H310.074C310.074 161.354 322.084 162.099 322.084 153.989C322.079 152.928 321.868 151.878 321.463 150.899C321.058 149.92 320.466 149.032 319.723 148.285C318.979 147.538 318.098 146.947 317.129 146.545C316.161 146.144 315.124 145.939 314.077 145.945C311.958 145.988 309.939 146.865 308.445 148.39C306.951 149.915 306.1 151.969 306.07 154.119H298.064C298.047 149.81 299.718 145.672 302.709 142.613C305.7 139.554 309.766 137.826 314.013 137.809C318.26 137.792 322.34 139.487 325.355 142.521C328.37 145.556 330.074 149.681 330.091 153.989C330.078 164.126 318.081 165.286 318.081 174.166Z" fill="#6C63FF"/>
    <path opacity="0.1" d="M459.207 198.228H454.539V193.565H459.207V198.228ZM459.137 191.201H454.584C454.584 183.959 461.371 184.38 461.371 179.794C461.371 179.194 461.254 178.601 461.026 178.047C460.798 177.494 460.465 176.991 460.044 176.57C459.624 176.148 459.125 175.815 458.577 175.59C458.029 175.366 457.442 175.253 456.851 175.26C455.653 175.285 454.512 175.781 453.668 176.642C452.824 177.504 452.342 178.664 452.324 179.878H447.797C447.85 177.485 448.822 175.207 450.506 173.53C452.19 171.853 454.453 170.909 456.813 170.899C459.173 170.89 461.444 171.816 463.141 173.48C464.838 175.144 465.827 177.414 465.898 179.807C465.924 185.501 459.137 186.181 459.137 191.201Z" fill="#6C63FF"/>
    <path opacity="0.1" d="M530.566 410.338H525.899V405.674H530.566V410.338ZM530.496 403.31H525.969C525.969 396.062 532.762 396.489 532.762 391.904C532.754 390.694 532.272 389.537 531.424 388.686C530.575 387.836 529.428 387.363 528.235 387.37C527.038 387.393 525.896 387.888 525.051 388.75C524.206 389.611 523.725 390.773 523.709 391.988H519.182C519.234 389.594 520.207 387.316 521.891 385.639C523.575 383.962 525.838 383.018 528.198 383.009C530.558 383 532.828 383.925 534.525 385.589C536.222 387.253 537.212 389.524 537.283 391.917C537.308 397.636 530.521 398.29 530.521 403.31H530.496Z" fill="#6C63FF"/>
    <g clip-path="url(#clip1)">
      <path d="M264 271.984C264 289.051 260.015 303.099 253.101 315.134C250.819 319.098 248.229 322.87 245.355 326.416C219.94 357.943 172.689 375.199 129.983 403.15C3.92167 485.654 -9.73314 353.45 -4.03964 271.984C-1.7431 239.113 10.8783 209.002 30.93 185.948C35.1411 181.099 39.6901 176.563 44.5418 172.375C67.3062 152.712 96.7163 140.813 129.983 140.813C187.056 140.813 235.796 175.728 255.12 224.929C260.995 239.901 264.009 255.87 264 271.984Z" fill="#6C63FF"/>
      <path d="M158.537 170.375L30.9307 185.948C35.1418 181.099 39.6908 176.563 44.5425 172.375L158.537 170.375Z" fill="#D0CDE1"/>
      <path d="M253.102 315.134C250.82 319.098 248.23 322.87 245.356 326.416L136.05 313.081L253.102 315.134Z" fill="#D0CDE1"/>
      <path d="M259.579 238.458L74.3301 214.088L255.12 224.929C256.857 229.35 258.345 233.866 259.579 238.458Z" fill="#D0CDE1"/>
      <path d="M8.52634 175.753C8.52634 176.088 8.51676 176.418 8.48805 176.743C8.34316 178.758 7.75692 180.715 6.77203 182.472C5.78714 184.228 4.42839 185.739 2.79478 186.896C1.16116 188.052 -0.706217 188.825 -2.67131 189.156C-4.6364 189.488 -6.64974 189.371 -8.56468 188.814C-10.4796 188.257 -12.2479 187.274 -13.7408 185.936C-15.2337 184.598 -16.4136 182.94 -17.1945 181.081C-17.9754 179.222 -18.3378 177.21 -18.2551 175.191C-18.1724 173.172 -17.6467 171.198 -16.7164 169.411C-16.4284 168.851 -16.0989 168.314 -15.7308 167.805C-14.1288 165.551 -11.8838 163.85 -9.29873 162.931C-6.71365 162.012 -3.91282 161.919 -1.27402 162.664C1.36477 163.41 3.71458 164.959 5.45846 167.102C7.20235 169.244 8.25641 171.878 8.47847 174.647C8.51195 175.011 8.52634 175.38 8.52634 175.753Z" fill="#6C63FF"/>
      <path d="M8.52638 175.753C8.52638 176.088 8.51681 176.418 8.4881 176.743L-11.5684 174.297L8.47852 174.647C8.512 175.011 8.52638 175.379 8.52638 175.753Z" fill="#D0CDE1"/>
      <path d="M3.74182 182.6L-14.8123 184.866C-15.339 184.271 -15.8129 183.629 -16.2285 182.949L3.74182 182.6Z" fill="#D0CDE1"/>
      <path d="M192.122 420.386C191.967 420.681 191.806 420.968 191.631 421.242C190.571 422.953 189.149 424.403 187.467 425.486C185.786 426.569 183.887 427.258 181.909 427.503C179.932 427.748 177.925 427.542 176.036 426.901C174.147 426.26 172.423 425.199 170.989 423.797C169.555 422.394 168.447 420.685 167.747 418.793C167.046 416.902 166.771 414.876 166.94 412.862C167.109 410.849 167.719 408.9 168.725 407.156C169.732 405.412 171.109 403.917 172.756 402.781C173.269 402.424 173.808 402.106 174.369 401.831C176.826 400.602 179.595 400.167 182.303 400.584C185.012 401.001 187.529 402.251 189.515 404.164C191.501 406.078 192.861 408.563 193.411 411.285C193.961 414.006 193.675 416.834 192.591 419.385C192.453 419.723 192.295 420.056 192.122 420.386Z" fill="#6C63FF"/>
      <path d="M192.122 420.386C191.967 420.682 191.806 420.969 191.631 421.242L175.045 409.546L192.591 419.386C192.452 419.723 192.295 420.056 192.122 420.386Z" fill="#D0CDE1"/>
      <path d="M184.731 424.159L167.295 417.339C167.105 416.563 166.983 415.771 166.93 414.973L184.731 424.159Z" fill="#D0CDE1"/>
      <path d="M187.035 408.369L172.756 402.781C173.269 402.424 173.808 402.106 174.369 401.831L187.035 408.369Z" fill="#D0CDE1"/>
      <path d="M287.004 186.162C287.234 186.402 287.455 186.645 287.658 186.898C288.941 188.443 289.869 190.259 290.373 192.214C290.877 194.169 290.945 196.213 290.571 198.198C290.198 200.183 289.392 202.058 288.214 203.687C287.036 205.316 285.514 206.658 283.76 207.616C282.005 208.573 280.062 209.121 278.073 209.221C276.083 209.32 274.096 208.968 272.258 208.19C270.419 207.413 268.774 206.229 267.444 204.725C266.113 203.221 265.13 201.435 264.566 199.497C264.387 198.892 264.253 198.275 264.166 197.649C263.762 194.902 264.198 192.094 265.416 189.605C266.634 187.117 268.575 185.067 270.978 183.732C273.38 182.397 276.128 181.842 278.852 182.141C281.575 182.44 284.143 183.579 286.208 185.404C286.482 185.641 286.747 185.895 287.004 186.162Z" fill="#6C63FF"/>
      <path d="M287.004 186.163C287.235 186.402 287.455 186.645 287.658 186.898L271.616 199.35L286.208 185.404C286.483 185.641 286.747 185.895 287.004 186.163Z" fill="#D0CDE1"/>
      <path d="M288.292 194.452L276.569 209.214C275.782 209.16 275.001 209.037 274.235 208.844L288.292 194.452Z" fill="#D0CDE1"/>
      <path d="M274.169 187.41L264.566 199.497C264.387 198.893 264.253 198.275 264.166 197.649L274.169 187.41Z" fill="#D0CDE1"/>
      <path d="M35.6767 436.557C35.6767 436.557 65.0752 437.8 65.0752 445.254C65.0752 452.708 32.002 445.254 32.002 445.254L35.6767 436.557Z" fill="#A0616A"/>
      <path d="M-8.42046 550.856L-63.5424 547.129L-65.9923 517.312L-78.2416 543.402L-132.139 535.948C-130.914 488.737 -111.315 442.769 -110.09 436.557C-108.865 430.345 -105.937 404.678 -105.937 404.678C-100.584 393.161 -72.5335 392.08 -50.5459 393.124C-41.4323 393.546 -33.3478 394.341 -28.3624 394.913C-25.0674 395.285 -23.1196 395.559 -23.1196 395.559C-14.337 404.74 -8.67764 417.251 -5.19887 431.227C7.34442 481.581 -8.42046 550.856 -8.42046 550.856Z" fill="#2F2E41"/>
      <path d="M-59.8675 288.714C-59.8675 288.714 -72.1169 304.865 -62.3174 333.439C-52.5179 362.014 -39.0437 406.74 -39.0437 406.74L32.0024 448.981L41.8019 436.557L-24.3445 384.377C-24.3445 384.377 -26.7944 289.956 -39.0437 286.229C-51.293 282.502 -59.8675 288.714 -59.8675 288.714Z" fill="#D0CDE1"/>
      <path d="M22.569 297.64L22.3468 297.61L22.8888 299.7C23.4011 302.616 24.1452 305.484 25.1136 308.278L41.0106 369.57C41.518 371.527 42.5774 373.29 44.0589 374.644C45.5403 375.998 47.3793 376.885 49.3503 377.194L81.7696 382.281C83.8659 382.609 86.0111 382.27 87.9091 381.309C89.8071 380.349 91.3642 378.814 92.3653 376.918L123.174 318.552C124.137 316.935 125.017 315.269 125.81 313.56L126.856 311.578L126.693 311.556C129.959 303.72 131.396 295.225 130.893 286.733C130.39 278.241 127.961 269.982 123.794 262.599C119.627 255.216 113.835 248.909 106.869 244.169C99.904 239.429 91.9535 236.385 83.6376 235.273C75.3218 234.162 66.8651 235.013 58.927 237.761C50.9889 240.509 43.7837 245.08 37.8731 251.116C31.9625 257.152 27.5062 264.491 24.8516 272.561C22.197 280.631 21.4158 289.214 22.5689 297.64H22.569Z" fill="#3F3D56"/>
      <path d="M83.759 386.285C83.188 386.285 82.6179 386.241 82.0536 386.152L48.1664 380.835C46.014 380.497 44.0057 379.53 42.3879 378.051C40.7701 376.572 39.6133 374.646 39.0596 372.51L22.443 308.443C21.4274 305.51 20.647 302.499 20.1091 299.438L19.6889 296.636C18.5582 287.682 19.4952 278.584 22.4257 270.06C25.3562 261.536 30.2001 253.82 36.575 247.52C42.9498 241.22 50.6812 236.51 59.1587 233.76C67.6362 231.011 76.6279 230.298 85.4238 231.677L85.277 232.636C76.577 231.276 67.6839 231.998 59.3074 234.742C50.931 237.487 43.3028 242.179 37.0316 248.445C30.7604 254.71 26.0196 262.375 23.1875 270.829C20.3554 279.282 19.5104 288.29 20.7198 297.133L21.0429 299.23C21.5766 302.264 22.3505 305.25 23.3571 308.159L39.9852 372.263C40.4914 374.217 41.5491 375.978 43.0285 377.33C44.5079 378.682 46.3444 379.567 48.3127 379.876L82.1998 385.193C84.2929 385.519 86.4343 385.18 88.3291 384.22C90.2239 383.261 91.779 381.73 92.7803 379.838L93.6241 380.295C92.6666 382.105 91.2438 383.617 89.5068 384.672C87.7698 385.726 85.7835 386.284 83.759 386.285Z" fill="#D0CDE1"/>
      <path d="M92.3555 311.572L71.7363 368.673L72.8985 369.105L93.5177 312.004L92.3555 311.572Z" fill="#D0CDE1"/>
      <path d="M58.6886 306.289L57.4521 306.344L60.0839 367.095L61.3203 367.04L58.6886 306.289Z" fill="#D0CDE1"/>
      <path d="M80.8946 415.331L37.4721 408.517C37.1492 408.465 36.86 408.285 36.6676 408.016C36.4752 407.748 36.3952 407.414 36.4452 407.086C36.4952 406.758 36.6711 406.464 36.9344 406.267C37.1977 406.07 37.527 405.987 37.8505 406.036L81.273 412.849C81.4344 412.874 81.5894 412.93 81.7292 413.015C81.869 413.101 81.9907 413.213 82.0875 413.347C82.1842 413.48 82.2541 413.631 82.293 413.792C82.3318 413.953 82.339 414.119 82.3141 414.283C82.2891 414.447 82.2326 414.603 82.1476 414.745C82.0627 414.886 81.951 415.009 81.8191 415.106C81.6872 415.204 81.5376 415.273 81.3789 415.312C81.2202 415.35 81.0556 415.357 80.8946 415.331Z" fill="#3F3D56"/>
      <path d="M82.0084 405.978L38.5859 399.165C38.4245 399.141 38.2695 399.084 38.1297 398.999C37.9899 398.914 37.8682 398.801 37.7714 398.668C37.6747 398.535 37.6048 398.383 37.5659 398.223C37.5271 398.062 37.5199 397.895 37.5448 397.731C37.5698 397.568 37.6263 397.411 37.7113 397.27C37.7962 397.128 37.9079 397.006 38.0398 396.908C38.1717 396.811 38.3213 396.741 38.48 396.702C38.6387 396.664 38.8033 396.658 38.9643 396.684L82.3868 403.497C82.5482 403.521 82.7032 403.578 82.843 403.663C82.9828 403.749 83.1045 403.861 83.2013 403.994C83.298 404.128 83.3679 404.279 83.4068 404.44C83.4456 404.6 83.4528 404.767 83.4279 404.931C83.403 405.094 83.3464 405.251 83.2614 405.392C83.1765 405.534 83.0648 405.657 82.9329 405.754C82.801 405.851 82.6514 405.921 82.4927 405.96C82.3341 405.998 82.1694 406.005 82.0084 405.978Z" fill="#3F3D56"/>
      <path d="M83.1221 396.625L39.6996 389.812C39.3767 389.76 39.0875 389.58 38.8951 389.311C38.7027 389.043 38.6228 388.709 38.6728 388.381C38.7228 388.053 38.8986 387.759 39.162 387.562C39.4253 387.365 39.7546 387.282 40.0781 387.331L83.5006 394.144C83.8234 394.197 84.1127 394.377 84.3051 394.645C84.4975 394.913 84.5774 395.248 84.5274 395.576C84.4774 395.903 84.3015 396.198 84.0382 396.395C83.7749 396.591 83.4456 396.674 83.1221 396.625H83.1221Z" fill="#3F3D56"/>
      <path d="M57.8336 420.773C66.4467 422.124 74.1717 418.351 75.0877 412.345L43.8969 407.451C42.9808 413.457 49.2205 419.421 57.8336 420.773Z" fill="#3F3D56"/>
      <path d="M73.4421 299.542C71.5893 299.252 70.0565 297.766 69.2161 296.771C68.9406 296.445 68.6724 296.106 68.4034 295.767C67.4247 294.531 66.5007 293.364 65.2138 292.756C62.3734 291.412 59.0265 293.289 56.1288 295.303L55.4287 294.268C58.6146 292.053 62.3297 290.006 65.7372 291.618C67.285 292.35 68.3441 293.687 69.3682 294.98C69.6289 295.31 69.8892 295.638 70.1561 295.955C71.0299 296.989 72.7727 298.667 74.64 298.28C75.4269 298.047 76.1588 297.654 76.7908 297.125C77.2724 296.76 77.7813 296.435 78.3129 296.151C79.3911 295.626 80.5981 295.437 81.782 295.607C82.9659 295.777 84.0739 296.298 84.9666 297.105C85.2848 297.41 85.5862 297.734 85.8695 298.073C86.4263 298.717 86.9519 299.324 87.6362 299.545C88.6478 299.873 89.7169 299.287 90.8498 298.667C92.0182 298.028 93.2259 297.366 94.596 297.529C94.6404 297.535 94.6854 297.541 94.7296 297.548C97.1675 297.93 98.2915 300.665 98.9275 302.706L97.747 303.084C96.8829 300.31 95.8305 298.93 94.451 298.776C93.4696 298.659 92.4827 299.2 91.4378 299.772C90.1279 300.489 88.7721 301.231 87.2604 300.741C86.2486 300.415 85.5826 299.645 84.939 298.901C84.6854 298.597 84.4157 298.306 84.1312 298.031C83.4202 297.4 82.5434 296.992 81.6077 296.858C80.672 296.724 79.718 296.869 78.8624 297.276C78.3886 297.531 77.9349 297.823 77.5053 298.15C76.7373 298.785 75.8455 299.248 74.8884 299.51C74.4121 299.608 73.9222 299.619 73.4421 299.542Z" fill="#D0CDE1"/>
    </g>
  </g>
  <defs>
    <linearGradient id="paint0_linear" x1="445.16" y1="538.936" x2="445.16" y2="235.317" gradientUnits="userSpaceOnUse">
      <stop stop-color="#808080" stop-opacity="0.25"/>
      <stop offset="0.54" stop-color="#808080" stop-opacity="0.12"/>
      <stop offset="1" stop-color="#808080" stop-opacity="0.1"/>
    </linearGradient>
    <clipPath id="clip0">
      <rect width="641" height="542" fill="white"/>
    </clipPath>
    <clipPath id="clip1">
      <rect width="484.68" height="410.043" fill="white" transform="translate(-193.872 140.813)"/>
    </clipPath>
  </defs>
</svg>
