<svg width="799" height="481" viewBox="0 0 799 481" fill="none" xmlns="http://www.w3.org/2000/svg">
  <ellipse opacity="0.2" cx="399.037" cy="455.116" rx="399.037" ry="25.8835" fill="#031B06"/>
  <path d="M665.42 379.436C657.467 377.448 670.39 401.803 677.846 414.229C683.505 424.169 695.241 422.927 695.241 416.714C695.241 410.501 675.361 381.921 665.42 379.436Z" fill="url(#paint0_linear)"/>
  <path d="M723.902 381.864C723.557 373.674 703.859 392.965 694.054 403.635C686.122 411.878 690.638 422.782 696.597 421.022C702.555 419.262 724.334 392.101 723.902 381.864Z" fill="url(#paint1_linear)"/>
  <path d="M695.185 371.088C690.02 364.722 685.727 391.957 684.226 406.37C682.781 417.717 692.912 423.771 696.643 418.804C700.374 413.836 701.641 379.044 695.185 371.088Z" fill="url(#paint2_linear)"/>
  <path d="M137.318 448.576L141.046 434.908H129.862L112.466 457.274L137.318 448.576Z" fill="#6FCF97"/>
  <path d="M62.7624 457.274L72.7032 448.576L64.005 442.363L36.668 457.274H62.7624Z" fill="#6FCF97"/>
  <path d="M296.371 175.206L288.916 192.602L285.188 197.573L272.762 201.3L271.52 187.632L280.218 166.508L296.371 175.206Z" fill="#F2994A"/>
  <path d="M333.648 182.662L337.376 187.632L347.316 182.662L342.346 173.964C338.618 167.751 331.533 159.423 327.435 155.325C323.707 151.597 324.121 154.082 323.707 156.567L331.163 166.508C331.163 166.508 328.108 169.147 327.435 171.479C326.616 174.315 327.047 176.474 328.677 178.934C330.018 180.956 333.648 182.662 333.648 182.662Z" fill="url(#paint3_linear)"/>
  <path d="M281.456 212.483L287.669 221.181L298.852 212.483C295.538 208.755 288.911 201.051 288.911 200.057V192.601C286.426 193.43 282.835 196.123 278.971 195.086C274.994 194.019 273.172 190.116 271.515 187.631C271.515 187.631 269.007 188.862 267.787 190.116C263.726 194.29 264.879 199.982 267.787 205.027C270.824 210.295 281.456 212.483 281.456 212.483Z" fill="url(#paint4_linear)"/>
  <path d="M347.318 182.662L393.306 227.214L368.442 233.608L337.377 187.632L347.318 182.662Z" fill="url(#paint5_linear)"/>
  <path d="M423.117 203.786C419.141 194.84 433.886 181.834 441.756 176.449L475.306 216.212L459.152 237.336L446.726 264.673L426.844 237.336L434.3 221.183C432.229 219.112 427.093 212.733 423.117 203.786Z" fill="url(#paint6_linear)"/>
  <path d="M72.7021 447.334L64.0039 442.363L189.506 319.347H287.671L308.795 360.352L179.565 383.962L72.7021 447.334Z" fill="url(#paint7_linear)"/>
  <path opacity="0.2" d="M304.28 360.086L179.379 384.004L158.119 395.962L195.324 321.553L304.28 360.086Z" fill="black"/>
  <path d="M339.859 294.494C331.906 299.464 317.078 303.192 311.279 304.435L336.131 339.227L411.929 318.103L442.994 244.79L430.568 228.637C425.184 227.808 411.184 224.66 403.231 223.666C393.29 222.424 344.829 238.577 336.131 238.577C329.173 238.577 308.38 221.181 298.853 212.483L287.67 221.181C295.954 232.364 315.255 255.725 326.19 259.701C339.859 264.672 377.137 254.731 374.651 259.701C372.166 264.672 349.8 288.281 339.859 294.494Z" fill="#DB5CF5"/>
  <path opacity="0.2" d="M389.32 264.418C385.068 275.048 353.887 289.221 338.828 294.979C354.773 284.349 366.731 269.733 374.704 260.432C381.79 257.774 393.572 253.788 389.32 264.418Z" fill="black"/>
  <path d="M141.045 434.907H129.861C141.459 388.103 167.636 294.494 179.565 294.494C191.494 294.494 272.345 301.121 311.28 304.435L332.404 331.772L276.375 357.428L199.447 340.47L141.045 434.907Z" fill="url(#paint8_linear)"/>
  <path d="M303.828 449.818C231.757 453.546 223.059 438.635 216.846 427.451C209.391 405.085 216.846 390.174 254.124 367.807C291.402 345.44 337.378 323.074 374.655 301.95C411.933 280.825 469.093 180.175 527.494 170.235C585.896 160.294 621.931 234.849 635.6 313.133C649.269 391.416 607.02 436.15 592.109 436.15C577.198 436.15 375.898 446.09 303.828 449.818Z" fill="#6F5ED8"/>
  <path d="M441.754 203.785C433.802 200.803 438.441 185.146 441.754 177.691C445.844 164.022 472.818 140.413 491.457 136.685C510.096 132.957 534.948 154.081 534.948 167.75C534.948 181.418 534.948 188.874 552.344 198.815C569.741 208.755 573.468 234.85 554.83 246.033C536.191 257.217 538.676 248.518 511.339 258.459C484.002 268.4 469.091 314.376 457.907 294.494C446.724 274.613 465.363 275.856 454.18 262.187C442.996 248.518 470.333 227.394 469.091 217.454C467.848 207.513 451.695 207.513 441.754 203.785Z" fill="#153620"/>
  <rect x="88.4355" y="153.144" width="96.9223" height="72.0704" fill="#FBBC05"/>
  <path d="M126.439 187.202C129.545 193.306 134.549 198.288 140.653 201.416L145.399 196.671C145.981 196.088 146.844 195.894 147.599 196.153C150.015 196.951 152.624 197.382 155.299 197.382C156.485 197.382 157.456 198.353 157.456 199.539V207.067C157.456 208.253 156.485 209.224 155.299 209.224C135.045 209.224 118.631 192.81 118.631 172.556C118.631 171.37 119.601 170.399 120.788 170.399H128.337C129.523 170.399 130.494 171.37 130.494 172.556C130.494 175.252 130.925 177.84 131.724 180.256C131.961 181.011 131.788 181.852 131.184 182.456L126.439 187.202Z" fill="white"/>
  <rect x="138.045" width="96.9223" height="72.0704" fill="#68E1FD"/>
  <path d="M204.909 19.4116H170.398C168.025 19.4116 166.106 21.3529 166.106 23.7255L166.084 49.609C166.084 51.9816 168.025 53.9229 170.398 53.9229H204.909C207.282 53.9229 209.223 51.9816 209.223 49.609V23.7255C209.223 21.3529 207.282 19.4116 204.909 19.4116ZM204.909 28.0394L187.654 38.8242L170.398 28.0394V23.7255L187.654 34.5103L204.909 23.7255V28.0394Z" fill="white"/>
  <rect x="330.012" width="96.9223" height="72.0704" fill="#7168FD"/>
  <path d="M377.444 15.0981C365.538 15.0981 355.896 24.7613 355.896 36.6677C355.896 48.5741 365.538 58.2372 377.444 58.2372C389.372 58.2372 399.036 48.5741 399.036 36.6677C399.036 24.7613 389.372 15.0981 377.444 15.0981ZM392.392 28.0399H386.029C385.339 25.3437 384.347 22.7553 383.053 20.3611C387.021 21.72 390.321 24.4809 392.392 28.0399ZM377.466 19.4983C379.256 22.0867 380.658 24.9554 381.586 28.0399H373.346C374.274 24.9554 375.676 22.0867 377.466 19.4983ZM360.771 40.9816C360.426 39.6011 360.21 38.156 360.21 36.6677C360.21 35.1794 360.426 33.7342 360.771 32.3538H368.062C367.889 33.7774 367.76 35.201 367.76 36.6677C367.76 38.1344 367.889 39.558 368.062 40.9816H360.771ZM362.54 45.2955H368.903C369.593 47.9917 370.585 50.58 371.88 52.9743C367.911 51.6154 364.611 48.876 362.54 45.2955ZM368.903 28.0399H362.54C364.611 24.4593 367.911 21.72 371.88 20.3611C370.585 22.7553 369.593 25.3437 368.903 28.0399ZM377.466 53.837C375.676 51.2487 374.274 48.3799 373.346 45.2955H381.586C380.658 48.3799 379.256 51.2487 377.466 53.837ZM382.513 40.9816H372.419C372.225 39.558 372.074 38.1344 372.074 36.6677C372.074 35.201 372.225 33.7558 372.419 32.3538H382.513C382.707 33.7558 382.858 35.201 382.858 36.6677C382.858 38.1344 382.707 39.558 382.513 40.9816ZM383.053 52.9743C384.347 50.58 385.339 47.9917 386.029 45.2955H392.392C390.321 48.8545 387.021 51.6154 383.053 52.9743ZM386.87 40.9816C387.043 39.558 387.172 38.1344 387.172 36.6677C387.172 35.201 387.043 33.7774 386.87 32.3538H394.161C394.506 33.7342 394.722 35.1794 394.722 36.6677C394.722 38.156 394.506 39.6011 394.161 40.9816H386.87Z" fill="white"/>
  <path d="M662.933 404.288C666.66 398.074 718.333 399.318 720.092 404.288C721.851 409.258 717.606 436.596 708.909 439.08C700.212 441.565 682.816 442.808 675.359 439.08C667.902 435.353 659.205 410.501 662.933 404.288Z" fill="#F2994A"/>
  <defs>
    <linearGradient id="paint0_linear" x1="679.082" y1="379.321" x2="679.082" y2="421.538" gradientUnits="userSpaceOnUse">
      <stop stop-color="#6CEDA0"/>
      <stop offset="1" stop-color="#199D56"/>
    </linearGradient>
    <linearGradient id="paint1_linear" x1="727.881" y1="394.934" x2="687.394" y2="406.89" gradientUnits="userSpaceOnUse">
      <stop stop-color="#6CEDA0"/>
      <stop offset="1" stop-color="#199D56"/>
    </linearGradient>
    <linearGradient id="paint2_linear" x1="706.177" y1="379.2" x2="680.825" y2="412.956" gradientUnits="userSpaceOnUse">
      <stop stop-color="#6CEDA0"/>
      <stop offset="1" stop-color="#199D56"/>
    </linearGradient>
    <linearGradient id="paint3_linear" x1="350.84" y1="162.203" x2="322.423" y2="174.281" gradientUnits="userSpaceOnUse">
      <stop stop-color="#FFF8E1"/>
      <stop offset="1" stop-color="#FFCC80"/>
    </linearGradient>
    <linearGradient id="paint4_linear" x1="303.881" y1="196.241" x2="269.247" y2="217.663" gradientUnits="userSpaceOnUse">
      <stop stop-color="#FFF8E1"/>
      <stop offset="1" stop-color="#FFCC80"/>
    </linearGradient>
    <linearGradient id="paint5_linear" x1="369.378" y1="179.244" x2="366.337" y2="229.368" gradientUnits="userSpaceOnUse">
      <stop stop-color="#DB5CF5"/>
      <stop offset="1" stop-color="#DB7CF5"/>
    </linearGradient>
    <linearGradient id="paint6_linear" x1="435.825" y1="190.01" x2="437.971" y2="224.097" gradientUnits="userSpaceOnUse">
      <stop stop-color="#FFF8E1"/>
      <stop offset="1" stop-color="#FFCC80"/>
    </linearGradient>
    <linearGradient id="paint7_linear" x1="112.941" y1="366.73" x2="207.281" y2="403.935" gradientUnits="userSpaceOnUse">
      <stop offset="0.0642604" stop-color="#40DD7F"/>
      <stop offset="1" stop-color="#40DD7F"/>
    </linearGradient>
    <linearGradient id="paint8_linear" x1="186.021" y1="287.006" x2="268.402" y2="378.688" gradientUnits="userSpaceOnUse">
      <stop stop-color="#40DD7F"/>
      <stop offset="1" stop-color="#199D56"/>
    </linearGradient>
  </defs>
</svg>
