<svg width="30" height="30" viewBox="0 0 30 30" fill="none" xmlns="http://www.w3.org/2000/svg">
  <g clip-path="url(#clip0)">
    <path d="M14.7863 14.4511C16.7717 14.4511 18.4908 13.739 19.8954 12.3342C21.3001 10.9295 22.0121 9.21086 22.0121 7.22531C22.0121 5.24046 21.3001 3.52156 19.8952 2.11646C18.4903 0.712049 16.7714 0 14.7863 0C12.8008 0 11.0821 0.712049 9.67747 2.11669C8.27283 3.52133 7.56055 5.24023 7.56055 7.22531C7.56055 9.21086 8.27283 10.9298 9.6777 12.3344C11.0826 13.7388 12.8015 14.4511 14.7863 14.4511Z" fill="#7C98A6"/>
    <path d="M27.4294 23.0685C27.3889 22.484 27.307 21.8463 27.1864 21.1729C27.0646 20.4945 26.9078 19.8532 26.7201 19.267C26.5263 18.6612 26.2626 18.0629 25.9367 17.4896C25.5984 16.8945 25.201 16.3763 24.7552 15.9499C24.2889 15.5038 23.7181 15.1451 23.058 14.8835C22.4002 14.6233 21.6712 14.4914 20.8914 14.4914C20.5852 14.4914 20.289 14.6171 19.717 14.9895C19.365 15.2191 18.9532 15.4846 18.4937 15.7782C18.1007 16.0286 17.5683 16.2632 16.9107 16.4756C16.2691 16.6832 15.6178 16.7885 14.9748 16.7885C14.3319 16.7885 13.6807 16.6832 13.0385 16.4756C12.3816 16.2634 11.8492 16.0288 11.4567 15.7784C11.0014 15.4875 10.5894 15.222 10.2322 14.9893C9.66087 14.6169 9.36447 14.4912 9.05823 14.4912C8.2782 14.4912 7.54944 14.6233 6.89186 14.8837C6.23222 15.1449 5.66116 15.5036 5.19447 15.9501C4.74884 16.3767 4.35127 16.8947 4.01344 17.4896C3.68774 18.0629 3.42407 18.661 3.22998 19.2673C3.04253 19.8534 2.88574 20.4945 2.76398 21.1729C2.64336 21.8454 2.56142 22.4833 2.5209 23.0692C2.48108 23.6432 2.46094 24.239 2.46094 24.8407C2.46094 26.4067 2.95876 27.6745 3.94043 28.6095C4.90997 29.5321 6.19286 30.0002 7.75291 30.0002H22.1981C23.7582 30.0002 25.0406 29.5323 26.0104 28.6095C26.9923 27.6752 27.4901 26.4072 27.4901 24.8405C27.4899 24.236 27.4695 23.6398 27.4294 23.0685Z" fill="#7C98A6"/>
  </g>
  <defs>
    <clipPath id="clip0">
      <rect width="30" height="30" fill="white"/>
    </clipPath>
  </defs>
</svg>
