<svg width="713" height="479" viewBox="0 0 713 479" fill="none" xmlns="http://www.w3.org/2000/svg">
  <g filter="url(#filter0_ddii)">
    <rect x="158" y="26" width="454" height="427" fill="#EEEEFF"/>
  </g>
  <g filter="url(#filter1_ddii)">
    <rect x="26" y="60" width="481" height="79" fill="#FFF6D6"/>
  </g>
  <path d="M62.9336 104.321C62.5 104.942 61.8936 105.408 61.1143 105.719C60.3408 106.023 59.4385 106.176 58.4072 106.176C57.3643 106.176 56.4385 105.933 55.6299 105.446C54.8213 104.954 54.1943 104.257 53.749 103.354C53.3096 102.452 53.084 101.406 53.0723 100.217V99.1006C53.0723 97.1729 53.5205 95.6787 54.417 94.6182C55.3193 93.5576 56.585 93.0273 58.2139 93.0273C59.5498 93.0273 60.625 93.3701 61.4395 94.0557C62.2539 94.7354 62.752 95.7021 62.9336 96.9561H61.2461C60.9297 95.2627 59.9219 94.416 58.2227 94.416C57.0918 94.416 56.2334 94.8145 55.6475 95.6113C55.0674 96.4023 54.7744 97.5508 54.7686 99.0566V100.103C54.7686 101.538 55.0967 102.681 55.7529 103.53C56.4092 104.374 57.2969 104.796 58.416 104.796C59.0488 104.796 59.6025 104.726 60.0771 104.585C60.5518 104.444 60.9443 104.207 61.2549 103.873V100.999H58.293V99.6279H62.9336V104.321ZM69.4463 106.176C68.1572 106.176 67.1084 105.754 66.2998 104.91C65.4912 104.061 65.0869 102.927 65.0869 101.509V101.21C65.0869 100.267 65.2656 99.4258 65.623 98.6875C65.9863 97.9434 66.4902 97.3633 67.1348 96.9473C67.7852 96.5254 68.4883 96.3145 69.2441 96.3145C70.4805 96.3145 71.4414 96.7217 72.127 97.5361C72.8125 98.3506 73.1553 99.5166 73.1553 101.034V101.711H66.7129C66.7363 102.648 67.0088 103.407 67.5303 103.987C68.0576 104.562 68.7256 104.849 69.5342 104.849C70.1084 104.849 70.5947 104.731 70.9932 104.497C71.3916 104.263 71.7402 103.952 72.0391 103.565L73.0322 104.339C72.2354 105.563 71.04 106.176 69.4463 106.176ZM69.2441 97.6504C68.5879 97.6504 68.0371 97.8906 67.5918 98.3711C67.1465 98.8457 66.8711 99.5137 66.7656 100.375H71.5293V100.252C71.4824 99.4258 71.2598 98.7871 70.8613 98.3359C70.4629 97.8789 69.9238 97.6504 69.2441 97.6504ZM77.251 94.1875V96.4902H79.0264V97.7471H77.251V103.645C77.251 104.025 77.3301 104.312 77.4883 104.506C77.6465 104.693 77.916 104.787 78.2969 104.787C78.4844 104.787 78.7422 104.752 79.0703 104.682V106C78.6426 106.117 78.2266 106.176 77.8223 106.176C77.0957 106.176 76.5479 105.956 76.1787 105.517C75.8096 105.077 75.625 104.453 75.625 103.645V97.7471H73.8936V96.4902H75.625V94.1875H77.251ZM94.1436 94.5918H90.0303V106H88.3516V94.5918H84.2471V93.2031H94.1436V94.5918ZM99.7158 97.9492C99.4697 97.9082 99.2031 97.8877 98.916 97.8877C97.8496 97.8877 97.126 98.3418 96.7451 99.25V106H95.1191V96.4902H96.7012L96.7275 97.5889C97.2607 96.7393 98.0166 96.3145 98.9951 96.3145C99.3115 96.3145 99.5518 96.3555 99.7158 96.4375V97.9492ZM106.738 106C106.645 105.812 106.568 105.479 106.51 104.998C105.754 105.783 104.852 106.176 103.803 106.176C102.865 106.176 102.095 105.912 101.491 105.385C100.894 104.852 100.595 104.178 100.595 103.363C100.595 102.373 100.97 101.605 101.72 101.061C102.476 100.51 103.536 100.234 104.901 100.234H106.483V99.4873C106.483 98.9189 106.313 98.4678 105.974 98.1338C105.634 97.7939 105.133 97.624 104.471 97.624C103.891 97.624 103.404 97.7705 103.012 98.0635C102.619 98.3564 102.423 98.7109 102.423 99.127H100.788C100.788 98.6523 100.955 98.1953 101.289 97.7559C101.629 97.3105 102.086 96.959 102.66 96.7012C103.24 96.4434 103.876 96.3145 104.567 96.3145C105.663 96.3145 106.521 96.5898 107.143 97.1406C107.764 97.6855 108.086 98.4385 108.109 99.3994V103.776C108.109 104.649 108.221 105.344 108.443 105.859V106H106.738ZM104.04 104.761C104.55 104.761 105.033 104.629 105.49 104.365C105.947 104.102 106.278 103.759 106.483 103.337V101.386H105.209C103.217 101.386 102.221 101.969 102.221 103.135C102.221 103.645 102.391 104.043 102.73 104.33C103.07 104.617 103.507 104.761 104.04 104.761ZM111.458 106V97.7471H109.955V96.4902H111.458V95.5146C111.458 94.4951 111.73 93.707 112.275 93.1504C112.82 92.5938 113.591 92.3154 114.587 92.3154C114.962 92.3154 115.334 92.3652 115.703 92.4648L115.615 93.7832C115.34 93.7305 115.047 93.7041 114.736 93.7041C114.209 93.7041 113.802 93.8594 113.515 94.1699C113.228 94.4746 113.084 94.9141 113.084 95.4883V96.4902H116.6V95.6816C116.6 94.6211 116.901 93.7949 117.505 93.2031C118.114 92.6113 118.973 92.3154 120.08 92.3154C120.736 92.3154 121.565 92.4941 122.567 92.8516L122.295 94.2227C121.562 93.9297 120.862 93.7832 120.194 93.7832C119.497 93.7832 118.993 93.9385 118.683 94.249C118.378 94.5596 118.226 95.0312 118.226 95.6641V96.4902H120.177V97.7471H118.226V106H116.6V97.7471H113.084V106H111.458ZM123.367 106H121.741V96.4902H123.367V106ZM129.836 104.849C130.416 104.849 130.923 104.673 131.356 104.321C131.79 103.97 132.03 103.53 132.077 103.003H133.615C133.586 103.548 133.398 104.066 133.053 104.559C132.707 105.051 132.244 105.443 131.664 105.736C131.09 106.029 130.48 106.176 129.836 106.176C128.541 106.176 127.51 105.745 126.742 104.884C125.98 104.017 125.6 102.833 125.6 101.333V101.061C125.6 100.135 125.77 99.3115 126.109 98.5908C126.449 97.8701 126.936 97.3105 127.568 96.9121C128.207 96.5137 128.96 96.3145 129.827 96.3145C130.894 96.3145 131.778 96.6338 132.481 97.2725C133.19 97.9111 133.568 98.7402 133.615 99.7598H132.077C132.03 99.1445 131.796 98.6406 131.374 98.248C130.958 97.8496 130.442 97.6504 129.827 97.6504C129.001 97.6504 128.359 97.9492 127.902 98.5469C127.451 99.1387 127.226 99.9971 127.226 101.122V101.43C127.226 102.525 127.451 103.369 127.902 103.961C128.354 104.553 128.998 104.849 129.836 104.849ZM145.779 105.06C145.146 105.804 144.218 106.176 142.993 106.176C141.979 106.176 141.206 105.883 140.673 105.297C140.146 104.705 139.879 103.832 139.873 102.678V96.4902H141.499V102.634C141.499 104.075 142.085 104.796 143.257 104.796C144.499 104.796 145.325 104.333 145.735 103.407V96.4902H147.361V106H145.814L145.779 105.06ZM157.873 101.351C157.873 102.798 157.542 103.964 156.88 104.849C156.218 105.733 155.321 106.176 154.19 106.176C153.036 106.176 152.128 105.81 151.466 105.077V109.656H149.84V96.4902H151.325L151.404 97.5449C152.066 96.7246 152.986 96.3145 154.164 96.3145C155.307 96.3145 156.209 96.7451 156.871 97.6064C157.539 98.4678 157.873 99.666 157.873 101.201V101.351ZM156.247 101.166C156.247 100.094 156.019 99.2471 155.562 98.626C155.104 98.0049 154.478 97.6943 153.681 97.6943C152.696 97.6943 151.958 98.1309 151.466 99.0039V103.548C151.952 104.415 152.696 104.849 153.698 104.849C154.478 104.849 155.096 104.541 155.553 103.926C156.016 103.305 156.247 102.385 156.247 101.166ZM159.552 101.166C159.552 99.707 159.897 98.5352 160.589 97.6504C161.28 96.7598 162.186 96.3145 163.305 96.3145C164.418 96.3145 165.3 96.6953 165.95 97.457V92.5H167.576V106H166.082L166.003 104.98C165.353 105.777 164.447 106.176 163.287 106.176C162.186 106.176 161.286 105.725 160.589 104.822C159.897 103.92 159.552 102.742 159.552 101.289V101.166ZM161.178 101.351C161.178 102.429 161.4 103.272 161.846 103.882C162.291 104.491 162.906 104.796 163.691 104.796C164.723 104.796 165.476 104.333 165.95 103.407V99.0391C165.464 98.1426 164.717 97.6943 163.709 97.6943C162.912 97.6943 162.291 98.002 161.846 98.6172C161.4 99.2324 161.178 100.144 161.178 101.351ZM175.979 106C175.885 105.812 175.809 105.479 175.75 104.998C174.994 105.783 174.092 106.176 173.043 106.176C172.105 106.176 171.335 105.912 170.731 105.385C170.134 104.852 169.835 104.178 169.835 103.363C169.835 102.373 170.21 101.605 170.96 101.061C171.716 100.51 172.776 100.234 174.142 100.234H175.724V99.4873C175.724 98.9189 175.554 98.4678 175.214 98.1338C174.874 97.7939 174.373 97.624 173.711 97.624C173.131 97.624 172.645 97.7705 172.252 98.0635C171.859 98.3564 171.663 98.7109 171.663 99.127H170.028C170.028 98.6523 170.195 98.1953 170.529 97.7559C170.869 97.3105 171.326 96.959 171.9 96.7012C172.48 96.4434 173.116 96.3145 173.808 96.3145C174.903 96.3145 175.762 96.5898 176.383 97.1406C177.004 97.6855 177.326 98.4385 177.35 99.3994V103.776C177.35 104.649 177.461 105.344 177.684 105.859V106H175.979ZM173.28 104.761C173.79 104.761 174.273 104.629 174.73 104.365C175.188 104.102 175.519 103.759 175.724 103.337V101.386H174.449C172.457 101.386 171.461 101.969 171.461 103.135C171.461 103.645 171.631 104.043 171.971 104.33C172.311 104.617 172.747 104.761 173.28 104.761ZM182.104 94.1875V96.4902H183.88V97.7471H182.104V103.645C182.104 104.025 182.184 104.312 182.342 104.506C182.5 104.693 182.77 104.787 183.15 104.787C183.338 104.787 183.596 104.752 183.924 104.682V106C183.496 106.117 183.08 106.176 182.676 106.176C181.949 106.176 181.401 105.956 181.032 105.517C180.663 105.077 180.479 104.453 180.479 103.645V97.7471H178.747V96.4902H180.479V94.1875H182.104ZM189.733 106.176C188.444 106.176 187.396 105.754 186.587 104.91C185.778 104.061 185.374 102.927 185.374 101.509V101.21C185.374 100.267 185.553 99.4258 185.91 98.6875C186.273 97.9434 186.777 97.3633 187.422 96.9473C188.072 96.5254 188.775 96.3145 189.531 96.3145C190.768 96.3145 191.729 96.7217 192.414 97.5361C193.1 98.3506 193.442 99.5166 193.442 101.034V101.711H187C187.023 102.648 187.296 103.407 187.817 103.987C188.345 104.562 189.013 104.849 189.821 104.849C190.396 104.849 190.882 104.731 191.28 104.497C191.679 104.263 192.027 103.952 192.326 103.565L193.319 104.339C192.522 105.563 191.327 106.176 189.733 106.176ZM189.531 97.6504C188.875 97.6504 188.324 97.8906 187.879 98.3711C187.434 98.8457 187.158 99.5137 187.053 100.375H191.816V100.252C191.77 99.4258 191.547 98.7871 191.148 98.3359C190.75 97.8789 190.211 97.6504 189.531 97.6504ZM200.869 103.478C200.869 103.038 200.702 102.698 200.368 102.458C200.04 102.212 199.463 102.001 198.637 101.825C197.816 101.649 197.163 101.438 196.677 101.192C196.196 100.946 195.839 100.653 195.604 100.313C195.376 99.9736 195.262 99.5693 195.262 99.1006C195.262 98.3213 195.59 97.6621 196.246 97.123C196.908 96.584 197.752 96.3145 198.777 96.3145C199.855 96.3145 200.729 96.5928 201.396 97.1494C202.07 97.7061 202.407 98.418 202.407 99.2852H200.772C200.772 98.8398 200.582 98.4561 200.201 98.1338C199.826 97.8115 199.352 97.6504 198.777 97.6504C198.186 97.6504 197.723 97.7793 197.389 98.0371C197.055 98.2949 196.888 98.6318 196.888 99.0479C196.888 99.4404 197.043 99.7363 197.354 99.9355C197.664 100.135 198.224 100.325 199.032 100.507C199.847 100.688 200.506 100.905 201.01 101.157C201.514 101.409 201.886 101.714 202.126 102.071C202.372 102.423 202.495 102.854 202.495 103.363C202.495 104.213 202.155 104.896 201.476 105.411C200.796 105.921 199.914 106.176 198.83 106.176C198.068 106.176 197.395 106.041 196.809 105.771C196.223 105.502 195.763 105.127 195.429 104.646C195.101 104.16 194.937 103.636 194.937 103.073H196.562C196.592 103.618 196.809 104.052 197.213 104.374C197.623 104.69 198.162 104.849 198.83 104.849C199.445 104.849 199.938 104.726 200.307 104.479C200.682 104.228 200.869 103.894 200.869 103.478ZM217.129 101.351C217.129 102.804 216.795 103.973 216.127 104.857C215.459 105.736 214.562 106.176 213.438 106.176C212.236 106.176 211.308 105.751 210.651 104.901L210.572 106H209.078V92.5H210.704V97.5361C211.36 96.7217 212.266 96.3145 213.42 96.3145C214.574 96.3145 215.479 96.751 216.136 97.624C216.798 98.4971 217.129 99.6924 217.129 101.21V101.351ZM215.503 101.166C215.503 100.059 215.289 99.2031 214.861 98.5996C214.434 97.9961 213.818 97.6943 213.016 97.6943C211.943 97.6943 211.173 98.1924 210.704 99.1885V103.302C211.202 104.298 211.979 104.796 213.033 104.796C213.812 104.796 214.419 104.494 214.853 103.891C215.286 103.287 215.503 102.379 215.503 101.166ZM223.132 106.176C221.843 106.176 220.794 105.754 219.985 104.91C219.177 104.061 218.772 102.927 218.772 101.509V101.21C218.772 100.267 218.951 99.4258 219.309 98.6875C219.672 97.9434 220.176 97.3633 220.82 96.9473C221.471 96.5254 222.174 96.3145 222.93 96.3145C224.166 96.3145 225.127 96.7217 225.812 97.5361C226.498 98.3506 226.841 99.5166 226.841 101.034V101.711H220.398C220.422 102.648 220.694 103.407 221.216 103.987C221.743 104.562 222.411 104.849 223.22 104.849C223.794 104.849 224.28 104.731 224.679 104.497C225.077 104.263 225.426 103.952 225.725 103.565L226.718 104.339C225.921 105.563 224.726 106.176 223.132 106.176ZM222.93 97.6504C222.273 97.6504 221.723 97.8906 221.277 98.3711C220.832 98.8457 220.557 99.5137 220.451 100.375H225.215V100.252C225.168 99.4258 224.945 98.7871 224.547 98.3359C224.148 97.8789 223.609 97.6504 222.93 97.6504ZM229.53 106V97.7471H228.027V96.4902H229.53V95.5146C229.53 94.4951 229.803 93.707 230.348 93.1504C230.893 92.5938 231.663 92.3154 232.659 92.3154C233.034 92.3154 233.406 92.3652 233.775 92.4648L233.688 93.7832C233.412 93.7305 233.119 93.7041 232.809 93.7041C232.281 93.7041 231.874 93.8594 231.587 94.1699C231.3 94.4746 231.156 94.9141 231.156 95.4883V96.4902H233.187V97.7471H231.156V106H229.53ZM234.558 101.157C234.558 100.226 234.739 99.3877 235.103 98.6436C235.472 97.8994 235.981 97.3252 236.632 96.9209C237.288 96.5166 238.035 96.3145 238.873 96.3145C240.168 96.3145 241.214 96.7627 242.011 97.6592C242.813 98.5557 243.215 99.748 243.215 101.236V101.351C243.215 102.276 243.036 103.108 242.679 103.847C242.327 104.579 241.82 105.15 241.158 105.561C240.502 105.971 239.746 106.176 238.891 106.176C237.602 106.176 236.556 105.728 235.753 104.831C234.956 103.935 234.558 102.748 234.558 101.271V101.157ZM236.192 101.351C236.192 102.405 236.436 103.252 236.922 103.891C237.414 104.529 238.07 104.849 238.891 104.849C239.717 104.849 240.373 104.526 240.859 103.882C241.346 103.231 241.589 102.323 241.589 101.157C241.589 100.114 241.34 99.2705 240.842 98.626C240.35 97.9756 239.693 97.6504 238.873 97.6504C238.07 97.6504 237.423 97.9697 236.931 98.6084C236.438 99.2471 236.192 100.161 236.192 101.351ZM249.851 97.9492C249.604 97.9082 249.338 97.8877 249.051 97.8877C247.984 97.8877 247.261 98.3418 246.88 99.25V106H245.254V96.4902H246.836L246.862 97.5889C247.396 96.7393 248.151 96.3145 249.13 96.3145C249.446 96.3145 249.687 96.3555 249.851 96.4375V97.9492ZM255.124 106.176C253.835 106.176 252.786 105.754 251.978 104.91C251.169 104.061 250.765 102.927 250.765 101.509V101.21C250.765 100.267 250.943 99.4258 251.301 98.6875C251.664 97.9434 252.168 97.3633 252.812 96.9473C253.463 96.5254 254.166 96.3145 254.922 96.3145C256.158 96.3145 257.119 96.7217 257.805 97.5361C258.49 98.3506 258.833 99.5166 258.833 101.034V101.711H252.391C252.414 102.648 252.687 103.407 253.208 103.987C253.735 104.562 254.403 104.849 255.212 104.849C255.786 104.849 256.272 104.731 256.671 104.497C257.069 104.263 257.418 103.952 257.717 103.565L258.71 104.339C257.913 105.563 256.718 106.176 255.124 106.176ZM254.922 97.6504C254.266 97.6504 253.715 97.8906 253.27 98.3711C252.824 98.8457 252.549 99.5137 252.443 100.375H257.207V100.252C257.16 99.4258 256.938 98.7871 256.539 98.3359C256.141 97.8789 255.602 97.6504 254.922 97.6504ZM266.954 106H265.328V92.5H266.954V106ZM273.511 106.176C272.222 106.176 271.173 105.754 270.364 104.91C269.556 104.061 269.151 102.927 269.151 101.509V101.21C269.151 100.267 269.33 99.4258 269.688 98.6875C270.051 97.9434 270.555 97.3633 271.199 96.9473C271.85 96.5254 272.553 96.3145 273.309 96.3145C274.545 96.3145 275.506 96.7217 276.191 97.5361C276.877 98.3506 277.22 99.5166 277.22 101.034V101.711H270.777C270.801 102.648 271.073 103.407 271.595 103.987C272.122 104.562 272.79 104.849 273.599 104.849C274.173 104.849 274.659 104.731 275.058 104.497C275.456 104.263 275.805 103.952 276.104 103.565L277.097 104.339C276.3 105.563 275.104 106.176 273.511 106.176ZM273.309 97.6504C272.652 97.6504 272.102 97.8906 271.656 98.3711C271.211 98.8457 270.936 99.5137 270.83 100.375H275.594V100.252C275.547 99.4258 275.324 98.7871 274.926 98.3359C274.527 97.8789 273.988 97.6504 273.309 97.6504ZM284.98 106C284.887 105.812 284.811 105.479 284.752 104.998C283.996 105.783 283.094 106.176 282.045 106.176C281.107 106.176 280.337 105.912 279.733 105.385C279.136 104.852 278.837 104.178 278.837 103.363C278.837 102.373 279.212 101.605 279.962 101.061C280.718 100.51 281.778 100.234 283.144 100.234H284.726V99.4873C284.726 98.9189 284.556 98.4678 284.216 98.1338C283.876 97.7939 283.375 97.624 282.713 97.624C282.133 97.624 281.646 97.7705 281.254 98.0635C280.861 98.3564 280.665 98.7109 280.665 99.127H279.03C279.03 98.6523 279.197 98.1953 279.531 97.7559C279.871 97.3105 280.328 96.959 280.902 96.7012C281.482 96.4434 282.118 96.3145 282.81 96.3145C283.905 96.3145 284.764 96.5898 285.385 97.1406C286.006 97.6855 286.328 98.4385 286.352 99.3994V103.776C286.352 104.649 286.463 105.344 286.686 105.859V106H284.98ZM282.282 104.761C282.792 104.761 283.275 104.629 283.732 104.365C284.189 104.102 284.521 103.759 284.726 103.337V101.386H283.451C281.459 101.386 280.463 101.969 280.463 103.135C280.463 103.645 280.633 104.043 280.973 104.33C281.312 104.617 281.749 104.761 282.282 104.761ZM291.897 103.794L294.253 96.4902H295.914L292.504 106H291.265L287.819 96.4902H289.48L291.897 103.794ZM299.245 106H297.619V96.4902H299.245V106ZM297.487 93.9678C297.487 93.7041 297.566 93.4814 297.725 93.2998C297.889 93.1182 298.129 93.0273 298.445 93.0273C298.762 93.0273 299.002 93.1182 299.166 93.2998C299.33 93.4814 299.412 93.7041 299.412 93.9678C299.412 94.2314 299.33 94.4512 299.166 94.627C299.002 94.8027 298.762 94.8906 298.445 94.8906C298.129 94.8906 297.889 94.8027 297.725 94.627C297.566 94.4512 297.487 94.2314 297.487 93.9678ZM303.394 96.4902L303.446 97.6855C304.173 96.7715 305.122 96.3145 306.294 96.3145C308.304 96.3145 309.317 97.4482 309.335 99.7158V106H307.709V99.707C307.703 99.0215 307.545 98.5146 307.234 98.1865C306.93 97.8584 306.452 97.6943 305.802 97.6943C305.274 97.6943 304.812 97.835 304.413 98.1162C304.015 98.3975 303.704 98.7666 303.481 99.2236V106H301.855V96.4902H303.394ZM311.4 101.166C311.4 99.6836 311.743 98.5059 312.429 97.6328C313.114 96.7539 314.022 96.3145 315.153 96.3145C316.313 96.3145 317.219 96.7246 317.869 97.5449L317.948 96.4902H319.434V105.771C319.434 107.002 319.067 107.972 318.335 108.681C317.608 109.39 316.63 109.744 315.399 109.744C314.714 109.744 314.043 109.598 313.387 109.305C312.73 109.012 312.229 108.61 311.884 108.101L312.728 107.125C313.425 107.986 314.277 108.417 315.285 108.417C316.076 108.417 316.691 108.194 317.131 107.749C317.576 107.304 317.799 106.677 317.799 105.868V105.051C317.148 105.801 316.261 106.176 315.136 106.176C314.022 106.176 313.12 105.728 312.429 104.831C311.743 103.935 311.4 102.713 311.4 101.166ZM313.035 101.351C313.035 102.423 313.255 103.267 313.694 103.882C314.134 104.491 314.749 104.796 315.54 104.796C316.565 104.796 317.318 104.33 317.799 103.398V99.0566C317.301 98.1484 316.554 97.6943 315.558 97.6943C314.767 97.6943 314.148 98.002 313.703 98.6172C313.258 99.2324 313.035 100.144 313.035 101.351ZM329.471 103.618L331.686 96.4902H333.426L329.603 107.468C329.011 109.05 328.07 109.841 326.781 109.841L326.474 109.814L325.867 109.7V108.382L326.307 108.417C326.857 108.417 327.285 108.306 327.59 108.083C327.9 107.86 328.155 107.453 328.354 106.861L328.715 105.895L325.322 96.4902H327.098L329.471 103.618ZM334.313 101.157C334.313 100.226 334.495 99.3877 334.858 98.6436C335.228 97.8994 335.737 97.3252 336.388 96.9209C337.044 96.5166 337.791 96.3145 338.629 96.3145C339.924 96.3145 340.97 96.7627 341.767 97.6592C342.569 98.5557 342.971 99.748 342.971 101.236V101.351C342.971 102.276 342.792 103.108 342.435 103.847C342.083 104.579 341.576 105.15 340.914 105.561C340.258 105.971 339.502 106.176 338.646 106.176C337.357 106.176 336.312 105.728 335.509 104.831C334.712 103.935 334.313 102.748 334.313 101.271V101.157ZM335.948 101.351C335.948 102.405 336.191 103.252 336.678 103.891C337.17 104.529 337.826 104.849 338.646 104.849C339.473 104.849 340.129 104.526 340.615 103.882C341.102 103.231 341.345 102.323 341.345 101.157C341.345 100.114 341.096 99.2705 340.598 98.626C340.105 97.9756 339.449 97.6504 338.629 97.6504C337.826 97.6504 337.179 97.9697 336.687 98.6084C336.194 99.2471 335.948 100.161 335.948 101.351ZM350.881 105.06C350.248 105.804 349.319 106.176 348.095 106.176C347.081 106.176 346.308 105.883 345.774 105.297C345.247 104.705 344.98 103.832 344.975 102.678V96.4902H346.601V102.634C346.601 104.075 347.187 104.796 348.358 104.796C349.601 104.796 350.427 104.333 350.837 103.407V96.4902H352.463V106H350.916L350.881 105.06ZM359.538 97.9492C359.292 97.9082 359.025 97.8877 358.738 97.8877C357.672 97.8877 356.948 98.3418 356.567 99.25V106H354.941V96.4902H356.523L356.55 97.5889C357.083 96.7393 357.839 96.3145 358.817 96.3145C359.134 96.3145 359.374 96.3555 359.538 96.4375V97.9492ZM369.452 106.176C368.163 106.176 367.114 105.754 366.306 104.91C365.497 104.061 365.093 102.927 365.093 101.509V101.21C365.093 100.267 365.271 99.4258 365.629 98.6875C365.992 97.9434 366.496 97.3633 367.141 96.9473C367.791 96.5254 368.494 96.3145 369.25 96.3145C370.486 96.3145 371.447 96.7217 372.133 97.5361C372.818 98.3506 373.161 99.5166 373.161 101.034V101.711H366.719C366.742 102.648 367.015 103.407 367.536 103.987C368.063 104.562 368.731 104.849 369.54 104.849C370.114 104.849 370.601 104.731 370.999 104.497C371.397 104.263 371.746 103.952 372.045 103.565L373.038 104.339C372.241 105.563 371.046 106.176 369.452 106.176ZM369.25 97.6504C368.594 97.6504 368.043 97.8906 367.598 98.3711C367.152 98.8457 366.877 99.5137 366.771 100.375H371.535V100.252C371.488 99.4258 371.266 98.7871 370.867 98.3359C370.469 97.8789 369.93 97.6504 369.25 97.6504ZM376.589 96.4902L376.642 97.6855C377.368 96.7715 378.317 96.3145 379.489 96.3145C381.499 96.3145 382.513 97.4482 382.53 99.7158V106H380.904V99.707C380.898 99.0215 380.74 98.5146 380.43 98.1865C380.125 97.8584 379.647 97.6943 378.997 97.6943C378.47 97.6943 378.007 97.835 377.608 98.1162C377.21 98.3975 376.899 98.7666 376.677 99.2236V106H375.051V96.4902H376.589ZM388.12 103.794L390.476 96.4902H392.137L388.727 106H387.487L384.042 96.4902H385.703L388.12 103.794ZM395.468 106H393.842V96.4902H395.468V106ZM393.71 93.9678C393.71 93.7041 393.789 93.4814 393.947 93.2998C394.111 93.1182 394.352 93.0273 394.668 93.0273C394.984 93.0273 395.225 93.1182 395.389 93.2998C395.553 93.4814 395.635 93.7041 395.635 93.9678C395.635 94.2314 395.553 94.4512 395.389 94.627C395.225 94.8027 394.984 94.8906 394.668 94.8906C394.352 94.8906 394.111 94.8027 393.947 94.627C393.789 94.4512 393.71 94.2314 393.71 93.9678ZM402.675 97.9492C402.429 97.9082 402.162 97.8877 401.875 97.8877C400.809 97.8877 400.085 98.3418 399.704 99.25V106H398.078V96.4902H399.66L399.687 97.5889C400.22 96.7393 400.976 96.3145 401.954 96.3145C402.271 96.3145 402.511 96.3555 402.675 96.4375V97.9492ZM403.571 101.157C403.571 100.226 403.753 99.3877 404.116 98.6436C404.485 97.8994 404.995 97.3252 405.646 96.9209C406.302 96.5166 407.049 96.3145 407.887 96.3145C409.182 96.3145 410.228 96.7627 411.024 97.6592C411.827 98.5557 412.229 99.748 412.229 101.236V101.351C412.229 102.276 412.05 103.108 411.692 103.847C411.341 104.579 410.834 105.15 410.172 105.561C409.516 105.971 408.76 106.176 407.904 106.176C406.615 106.176 405.569 105.728 404.767 104.831C403.97 103.935 403.571 102.748 403.571 101.271V101.157ZM405.206 101.351C405.206 102.405 405.449 103.252 405.936 103.891C406.428 104.529 407.084 104.849 407.904 104.849C408.73 104.849 409.387 104.526 409.873 103.882C410.359 103.231 410.603 102.323 410.603 101.157C410.603 100.114 410.354 99.2705 409.855 98.626C409.363 97.9756 408.707 97.6504 407.887 97.6504C407.084 97.6504 406.437 97.9697 405.944 98.6084C405.452 99.2471 405.206 100.161 405.206 101.351ZM415.806 96.4902L415.858 97.6855C416.585 96.7715 417.534 96.3145 418.706 96.3145C420.716 96.3145 421.729 97.4482 421.747 99.7158V106H420.121V99.707C420.115 99.0215 419.957 98.5146 419.646 98.1865C419.342 97.8584 418.864 97.6943 418.214 97.6943C417.687 97.6943 417.224 97.835 416.825 98.1162C416.427 98.3975 416.116 98.7666 415.894 99.2236V106H414.268V96.4902H415.806ZM425.729 96.4902L425.772 97.5449C426.47 96.7246 427.41 96.3145 428.594 96.3145C429.924 96.3145 430.829 96.8242 431.31 97.8438C431.626 97.3867 432.036 97.0176 432.54 96.7363C433.05 96.4551 433.65 96.3145 434.342 96.3145C436.428 96.3145 437.488 97.4189 437.523 99.6279V106H435.897V99.7246C435.897 99.0449 435.742 98.5381 435.432 98.2041C435.121 97.8643 434.6 97.6943 433.867 97.6943C433.264 97.6943 432.763 97.876 432.364 98.2393C431.966 98.5967 431.734 99.0801 431.67 99.6895V106H430.035V99.7686C430.035 98.3857 429.358 97.6943 428.005 97.6943C426.938 97.6943 426.209 98.1484 425.816 99.0566V106H424.19V96.4902H425.729ZM443.931 106.176C442.642 106.176 441.593 105.754 440.784 104.91C439.976 104.061 439.571 102.927 439.571 101.509V101.21C439.571 100.267 439.75 99.4258 440.107 98.6875C440.471 97.9434 440.975 97.3633 441.619 96.9473C442.27 96.5254 442.973 96.3145 443.729 96.3145C444.965 96.3145 445.926 96.7217 446.611 97.5361C447.297 98.3506 447.64 99.5166 447.64 101.034V101.711H441.197C441.221 102.648 441.493 103.407 442.015 103.987C442.542 104.562 443.21 104.849 444.019 104.849C444.593 104.849 445.079 104.731 445.478 104.497C445.876 104.263 446.225 103.952 446.523 103.565L447.517 104.339C446.72 105.563 445.524 106.176 443.931 106.176ZM443.729 97.6504C443.072 97.6504 442.521 97.8906 442.076 98.3711C441.631 98.8457 441.355 99.5137 441.25 100.375H446.014V100.252C445.967 99.4258 445.744 98.7871 445.346 98.3359C444.947 97.8789 444.408 97.6504 443.729 97.6504ZM451.067 96.4902L451.12 97.6855C451.847 96.7715 452.796 96.3145 453.968 96.3145C455.978 96.3145 456.991 97.4482 457.009 99.7158V106H455.383V99.707C455.377 99.0215 455.219 98.5146 454.908 98.1865C454.604 97.8584 454.126 97.6943 453.476 97.6943C452.948 97.6943 452.485 97.835 452.087 98.1162C451.688 98.3975 451.378 98.7666 451.155 99.2236V106H449.529V96.4902H451.067ZM461.667 94.1875V96.4902H463.442V97.7471H461.667V103.645C461.667 104.025 461.746 104.312 461.904 104.506C462.062 104.693 462.332 104.787 462.713 104.787C462.9 104.787 463.158 104.752 463.486 104.682V106C463.059 106.117 462.643 106.176 462.238 106.176C461.512 106.176 460.964 105.956 460.595 105.517C460.226 105.077 460.041 104.453 460.041 103.645V97.7471H458.31V96.4902H460.041V94.1875H461.667Z" fill="#7168FD"/>
  <g filter="url(#filter2_ddii)">
    <rect x="104" y="155" width="456" height="79" fill="#EBDCF9"/>
  </g>
  <path d="M237.898 196.939C237.74 198.293 237.239 199.339 236.396 200.077C235.558 200.81 234.441 201.176 233.047 201.176C231.535 201.176 230.322 200.634 229.408 199.55C228.5 198.466 228.046 197.016 228.046 195.199V193.969C228.046 192.779 228.257 191.733 228.679 190.831C229.106 189.929 229.71 189.237 230.489 188.757C231.269 188.271 232.171 188.027 233.196 188.027C234.556 188.027 235.646 188.408 236.466 189.17C237.286 189.926 237.764 190.975 237.898 192.316H236.202C236.056 191.297 235.736 190.559 235.244 190.102C234.758 189.645 234.075 189.416 233.196 189.416C232.118 189.416 231.271 189.814 230.656 190.611C230.047 191.408 229.742 192.542 229.742 194.013V195.252C229.742 196.641 230.032 197.745 230.612 198.565C231.192 199.386 232.004 199.796 233.047 199.796C233.984 199.796 234.702 199.585 235.2 199.163C235.704 198.735 236.038 197.994 236.202 196.939H237.898ZM241.581 192.642C242.302 191.757 243.239 191.314 244.394 191.314C246.403 191.314 247.417 192.448 247.435 194.716V201H245.809V194.707C245.803 194.021 245.645 193.515 245.334 193.187C245.029 192.858 244.552 192.694 243.901 192.694C243.374 192.694 242.911 192.835 242.513 193.116C242.114 193.397 241.804 193.767 241.581 194.224V201H239.955V187.5H241.581V192.642ZM253.815 201.176C252.526 201.176 251.478 200.754 250.669 199.91C249.86 199.061 249.456 197.927 249.456 196.509V196.21C249.456 195.267 249.635 194.426 249.992 193.688C250.355 192.943 250.859 192.363 251.504 191.947C252.154 191.525 252.857 191.314 253.613 191.314C254.85 191.314 255.811 191.722 256.496 192.536C257.182 193.351 257.524 194.517 257.524 196.034V196.711H251.082C251.105 197.648 251.378 198.407 251.899 198.987C252.427 199.562 253.095 199.849 253.903 199.849C254.478 199.849 254.964 199.731 255.362 199.497C255.761 199.263 256.109 198.952 256.408 198.565L257.401 199.339C256.604 200.563 255.409 201.176 253.815 201.176ZM253.613 192.65C252.957 192.65 252.406 192.891 251.961 193.371C251.516 193.846 251.24 194.514 251.135 195.375H255.898V195.252C255.852 194.426 255.629 193.787 255.23 193.336C254.832 192.879 254.293 192.65 253.613 192.65ZM263.229 199.849C263.809 199.849 264.315 199.673 264.749 199.321C265.183 198.97 265.423 198.53 265.47 198.003H267.008C266.979 198.548 266.791 199.066 266.445 199.559C266.1 200.051 265.637 200.443 265.057 200.736C264.482 201.029 263.873 201.176 263.229 201.176C261.934 201.176 260.902 200.745 260.135 199.884C259.373 199.017 258.992 197.833 258.992 196.333V196.061C258.992 195.135 259.162 194.312 259.502 193.591C259.842 192.87 260.328 192.311 260.961 191.912C261.6 191.514 262.353 191.314 263.22 191.314C264.286 191.314 265.171 191.634 265.874 192.272C266.583 192.911 266.961 193.74 267.008 194.76H265.47C265.423 194.145 265.188 193.641 264.767 193.248C264.351 192.85 263.835 192.65 263.22 192.65C262.394 192.65 261.752 192.949 261.295 193.547C260.844 194.139 260.618 194.997 260.618 196.122V196.43C260.618 197.525 260.844 198.369 261.295 198.961C261.746 199.553 262.391 199.849 263.229 199.849ZM271.49 196.597L270.471 197.66V201H268.845V187.5H270.471V195.665L271.341 194.619L274.303 191.49H276.28L272.58 195.463L276.711 201H274.804L271.49 196.597ZM281.993 196.157C281.993 195.226 282.175 194.388 282.538 193.644C282.907 192.899 283.417 192.325 284.067 191.921C284.724 191.517 285.471 191.314 286.309 191.314C287.604 191.314 288.649 191.763 289.446 192.659C290.249 193.556 290.65 194.748 290.65 196.236V196.351C290.65 197.276 290.472 198.108 290.114 198.847C289.763 199.579 289.256 200.15 288.594 200.561C287.938 200.971 287.182 201.176 286.326 201.176C285.037 201.176 283.991 200.728 283.188 199.831C282.392 198.935 281.993 197.748 281.993 196.271V196.157ZM283.628 196.351C283.628 197.405 283.871 198.252 284.357 198.891C284.85 199.529 285.506 199.849 286.326 199.849C287.152 199.849 287.809 199.526 288.295 198.882C288.781 198.231 289.024 197.323 289.024 196.157C289.024 195.114 288.775 194.271 288.277 193.626C287.785 192.976 287.129 192.65 286.309 192.65C285.506 192.65 284.858 192.97 284.366 193.608C283.874 194.247 283.628 195.161 283.628 196.351ZM298.561 200.06C297.928 200.804 296.999 201.176 295.774 201.176C294.761 201.176 293.987 200.883 293.454 200.297C292.927 199.705 292.66 198.832 292.654 197.678V191.49H294.28V197.634C294.28 199.075 294.866 199.796 296.038 199.796C297.28 199.796 298.106 199.333 298.517 198.407V191.49H300.143V201H298.596L298.561 200.06ZM304.827 189.188V191.49H306.603V192.747H304.827V198.645C304.827 199.025 304.906 199.312 305.064 199.506C305.223 199.693 305.492 199.787 305.873 199.787C306.061 199.787 306.318 199.752 306.646 199.682V201C306.219 201.117 305.803 201.176 305.398 201.176C304.672 201.176 304.124 200.956 303.755 200.517C303.386 200.077 303.201 199.453 303.201 198.645V192.747H301.47V191.49H303.201V189.188H304.827ZM317.571 192.949C317.325 192.908 317.059 192.888 316.771 192.888C315.705 192.888 314.981 193.342 314.601 194.25V201H312.975V191.49H314.557L314.583 192.589C315.116 191.739 315.872 191.314 316.851 191.314C317.167 191.314 317.407 191.355 317.571 191.438V192.949ZM318.468 196.157C318.468 195.226 318.649 194.388 319.013 193.644C319.382 192.899 319.892 192.325 320.542 191.921C321.198 191.517 321.945 191.314 322.783 191.314C324.078 191.314 325.124 191.763 325.921 192.659C326.724 193.556 327.125 194.748 327.125 196.236V196.351C327.125 197.276 326.946 198.108 326.589 198.847C326.237 199.579 325.73 200.15 325.068 200.561C324.412 200.971 323.656 201.176 322.801 201.176C321.512 201.176 320.466 200.728 319.663 199.831C318.866 198.935 318.468 197.748 318.468 196.271V196.157ZM320.103 196.351C320.103 197.405 320.346 198.252 320.832 198.891C321.324 199.529 321.98 199.849 322.801 199.849C323.627 199.849 324.283 199.526 324.77 198.882C325.256 198.231 325.499 197.323 325.499 196.157C325.499 195.114 325.25 194.271 324.752 193.626C324.26 192.976 323.604 192.65 322.783 192.65C321.98 192.65 321.333 192.97 320.841 193.608C320.349 194.247 320.103 195.161 320.103 196.351ZM335.035 201C334.941 200.812 334.865 200.479 334.807 199.998C334.051 200.783 333.148 201.176 332.1 201.176C331.162 201.176 330.392 200.912 329.788 200.385C329.19 199.852 328.892 199.178 328.892 198.363C328.892 197.373 329.267 196.605 330.017 196.061C330.772 195.51 331.833 195.234 333.198 195.234H334.78V194.487C334.78 193.919 334.61 193.468 334.271 193.134C333.931 192.794 333.43 192.624 332.768 192.624C332.188 192.624 331.701 192.771 331.309 193.063C330.916 193.356 330.72 193.711 330.72 194.127H329.085C329.085 193.652 329.252 193.195 329.586 192.756C329.926 192.311 330.383 191.959 330.957 191.701C331.537 191.443 332.173 191.314 332.864 191.314C333.96 191.314 334.818 191.59 335.439 192.141C336.061 192.686 336.383 193.438 336.406 194.399V198.776C336.406 199.649 336.518 200.344 336.74 200.859V201H335.035ZM332.337 199.761C332.847 199.761 333.33 199.629 333.787 199.365C334.244 199.102 334.575 198.759 334.78 198.337V196.386H333.506C331.514 196.386 330.518 196.969 330.518 198.135C330.518 198.645 330.688 199.043 331.027 199.33C331.367 199.617 331.804 199.761 332.337 199.761ZM338.56 196.166C338.56 194.707 338.905 193.535 339.597 192.65C340.288 191.76 341.193 191.314 342.312 191.314C343.426 191.314 344.308 191.695 344.958 192.457V187.5H346.584V201H345.09L345.011 199.98C344.36 200.777 343.455 201.176 342.295 201.176C341.193 201.176 340.294 200.725 339.597 199.822C338.905 198.92 338.56 197.742 338.56 196.289V196.166ZM340.186 196.351C340.186 197.429 340.408 198.272 340.854 198.882C341.299 199.491 341.914 199.796 342.699 199.796C343.73 199.796 344.483 199.333 344.958 198.407V194.039C344.472 193.143 343.725 192.694 342.717 192.694C341.92 192.694 341.299 193.002 340.854 193.617C340.408 194.232 340.186 195.144 340.186 196.351ZM357.395 199.849C357.975 199.849 358.481 199.673 358.915 199.321C359.349 198.97 359.589 198.53 359.636 198.003H361.174C361.145 198.548 360.957 199.066 360.611 199.559C360.266 200.051 359.803 200.443 359.223 200.736C358.648 201.029 358.039 201.176 357.395 201.176C356.1 201.176 355.068 200.745 354.301 199.884C353.539 199.017 353.158 197.833 353.158 196.333V196.061C353.158 195.135 353.328 194.312 353.668 193.591C354.008 192.87 354.494 192.311 355.127 191.912C355.766 191.514 356.519 191.314 357.386 191.314C358.452 191.314 359.337 191.634 360.04 192.272C360.749 192.911 361.127 193.74 361.174 194.76H359.636C359.589 194.145 359.354 193.641 358.933 193.248C358.517 192.85 358.001 192.65 357.386 192.65C356.56 192.65 355.918 192.949 355.461 193.547C355.01 194.139 354.784 194.997 354.784 196.122V196.43C354.784 197.525 355.01 198.369 355.461 198.961C355.912 199.553 356.557 199.849 357.395 199.849ZM362.571 196.157C362.571 195.226 362.753 194.388 363.116 193.644C363.485 192.899 363.995 192.325 364.646 191.921C365.302 191.517 366.049 191.314 366.887 191.314C368.182 191.314 369.228 191.763 370.024 192.659C370.827 193.556 371.229 194.748 371.229 196.236V196.351C371.229 197.276 371.05 198.108 370.692 198.847C370.341 199.579 369.834 200.15 369.172 200.561C368.516 200.971 367.76 201.176 366.904 201.176C365.615 201.176 364.569 200.728 363.767 199.831C362.97 198.935 362.571 197.748 362.571 196.271V196.157ZM364.206 196.351C364.206 197.405 364.449 198.252 364.936 198.891C365.428 199.529 366.084 199.849 366.904 199.849C367.73 199.849 368.387 199.526 368.873 198.882C369.359 198.231 369.603 197.323 369.603 196.157C369.603 195.114 369.354 194.271 368.855 193.626C368.363 192.976 367.707 192.65 366.887 192.65C366.084 192.65 365.437 192.97 364.944 193.608C364.452 194.247 364.206 195.161 364.206 196.351ZM374.806 191.49L374.858 192.686C375.585 191.771 376.534 191.314 377.706 191.314C379.716 191.314 380.729 192.448 380.747 194.716V201H379.121V194.707C379.115 194.021 378.957 193.515 378.646 193.187C378.342 192.858 377.864 192.694 377.214 192.694C376.687 192.694 376.224 192.835 375.825 193.116C375.427 193.397 375.116 193.767 374.894 194.224V201H373.268V191.49H374.806ZM382.804 196.166C382.804 194.707 383.149 193.535 383.841 192.65C384.532 191.76 385.438 191.314 386.557 191.314C387.67 191.314 388.552 191.695 389.202 192.457V187.5H390.828V201H389.334L389.255 199.98C388.604 200.777 387.699 201.176 386.539 201.176C385.438 201.176 384.538 200.725 383.841 199.822C383.149 198.92 382.804 197.742 382.804 196.289V196.166ZM384.43 196.351C384.43 197.429 384.652 198.272 385.098 198.882C385.543 199.491 386.158 199.796 386.943 199.796C387.975 199.796 388.728 199.333 389.202 198.407V194.039C388.716 193.143 387.969 192.694 386.961 192.694C386.164 192.694 385.543 193.002 385.098 193.617C384.652 194.232 384.43 195.144 384.43 196.351ZM395.126 201H393.5V191.49H395.126V201ZM393.368 188.968C393.368 188.704 393.447 188.481 393.605 188.3C393.77 188.118 394.01 188.027 394.326 188.027C394.643 188.027 394.883 188.118 395.047 188.3C395.211 188.481 395.293 188.704 395.293 188.968C395.293 189.231 395.211 189.451 395.047 189.627C394.883 189.803 394.643 189.891 394.326 189.891C394.01 189.891 393.77 189.803 393.605 189.627C393.447 189.451 393.368 189.231 393.368 188.968ZM399.942 189.188V191.49H401.718V192.747H399.942V198.645C399.942 199.025 400.021 199.312 400.18 199.506C400.338 199.693 400.607 199.787 400.988 199.787C401.176 199.787 401.434 199.752 401.762 199.682V201C401.334 201.117 400.918 201.176 400.514 201.176C399.787 201.176 399.239 200.956 398.87 200.517C398.501 200.077 398.316 199.453 398.316 198.645V192.747H396.585V191.49H398.316V189.188H399.942ZM405.392 201H403.766V191.49H405.392V201ZM403.634 188.968C403.634 188.704 403.713 188.481 403.871 188.3C404.035 188.118 404.275 188.027 404.592 188.027C404.908 188.027 405.148 188.118 405.312 188.3C405.477 188.481 405.559 188.704 405.559 188.968C405.559 189.231 405.477 189.451 405.312 189.627C405.148 189.803 404.908 189.891 404.592 189.891C404.275 189.891 404.035 189.803 403.871 189.627C403.713 189.451 403.634 189.231 403.634 188.968ZM407.571 196.157C407.571 195.226 407.753 194.388 408.116 193.644C408.485 192.899 408.995 192.325 409.646 191.921C410.302 191.517 411.049 191.314 411.887 191.314C413.182 191.314 414.228 191.763 415.024 192.659C415.827 193.556 416.229 194.748 416.229 196.236V196.351C416.229 197.276 416.05 198.108 415.692 198.847C415.341 199.579 414.834 200.15 414.172 200.561C413.516 200.971 412.76 201.176 411.904 201.176C410.615 201.176 409.569 200.728 408.767 199.831C407.97 198.935 407.571 197.748 407.571 196.271V196.157ZM409.206 196.351C409.206 197.405 409.449 198.252 409.936 198.891C410.428 199.529 411.084 199.849 411.904 199.849C412.73 199.849 413.387 199.526 413.873 198.882C414.359 198.231 414.603 197.323 414.603 196.157C414.603 195.114 414.354 194.271 413.855 193.626C413.363 192.976 412.707 192.65 411.887 192.65C411.084 192.65 410.437 192.97 409.944 193.608C409.452 194.247 409.206 195.161 409.206 196.351ZM419.806 191.49L419.858 192.686C420.585 191.771 421.534 191.314 422.706 191.314C424.716 191.314 425.729 192.448 425.747 194.716V201H424.121V194.707C424.115 194.021 423.957 193.515 423.646 193.187C423.342 192.858 422.864 192.694 422.214 192.694C421.687 192.694 421.224 192.835 420.825 193.116C420.427 193.397 420.116 193.767 419.894 194.224V201H418.268V191.49H419.806ZM433.736 198.478C433.736 198.038 433.569 197.698 433.235 197.458C432.907 197.212 432.33 197.001 431.504 196.825C430.684 196.649 430.03 196.438 429.544 196.192C429.063 195.946 428.706 195.653 428.472 195.313C428.243 194.974 428.129 194.569 428.129 194.101C428.129 193.321 428.457 192.662 429.113 192.123C429.775 191.584 430.619 191.314 431.645 191.314C432.723 191.314 433.596 191.593 434.264 192.149C434.938 192.706 435.274 193.418 435.274 194.285H433.64C433.64 193.84 433.449 193.456 433.068 193.134C432.693 192.812 432.219 192.65 431.645 192.65C431.053 192.65 430.59 192.779 430.256 193.037C429.922 193.295 429.755 193.632 429.755 194.048C429.755 194.44 429.91 194.736 430.221 194.936C430.531 195.135 431.091 195.325 431.899 195.507C432.714 195.688 433.373 195.905 433.877 196.157C434.381 196.409 434.753 196.714 434.993 197.071C435.239 197.423 435.362 197.854 435.362 198.363C435.362 199.213 435.022 199.896 434.343 200.411C433.663 200.921 432.781 201.176 431.697 201.176C430.936 201.176 430.262 201.041 429.676 200.771C429.09 200.502 428.63 200.127 428.296 199.646C427.968 199.16 427.804 198.636 427.804 198.073H429.43C429.459 198.618 429.676 199.052 430.08 199.374C430.49 199.69 431.029 199.849 431.697 199.849C432.312 199.849 432.805 199.726 433.174 199.479C433.549 199.228 433.736 198.894 433.736 198.478Z" fill="#7168FD"/>
  <g filter="url(#filter3_ddii)">
    <rect x="158" y="253" width="456" height="79" fill="#DDF5FC"/>
  </g>
  <path d="M315.485 299V286.203H319.098C320.211 286.203 321.195 286.449 322.051 286.941C322.906 287.434 323.565 288.134 324.028 289.042C324.497 289.95 324.734 290.993 324.74 292.171V292.988C324.74 294.195 324.506 295.253 324.037 296.161C323.574 297.069 322.909 297.767 322.042 298.253C321.181 298.739 320.176 298.988 319.027 299H315.485ZM317.173 287.592V297.62H318.948C320.249 297.62 321.26 297.216 321.98 296.407C322.707 295.599 323.07 294.447 323.07 292.953V292.206C323.07 290.753 322.728 289.625 322.042 288.822C321.362 288.014 320.396 287.604 319.142 287.592H317.173ZM331.64 290.949C331.394 290.908 331.127 290.888 330.84 290.888C329.773 290.888 329.05 291.342 328.669 292.25V299H327.043V289.49H328.625L328.651 290.589C329.185 289.739 329.94 289.314 330.919 289.314C331.235 289.314 331.476 289.355 331.64 289.438V290.949ZM334.909 299H333.283V289.49H334.909V299ZM333.151 286.968C333.151 286.704 333.23 286.481 333.389 286.3C333.553 286.118 333.793 286.027 334.109 286.027C334.426 286.027 334.666 286.118 334.83 286.3C334.994 286.481 335.076 286.704 335.076 286.968C335.076 287.231 334.994 287.451 334.83 287.627C334.666 287.803 334.426 287.891 334.109 287.891C333.793 287.891 333.553 287.803 333.389 287.627C333.23 287.451 333.151 287.231 333.151 286.968ZM340.657 296.794L343.013 289.49H344.674L341.264 299H340.024L336.579 289.49H338.24L340.657 296.794ZM348.005 299H346.379V289.49H348.005V299ZM346.247 286.968C346.247 286.704 346.326 286.481 346.484 286.3C346.648 286.118 346.889 286.027 347.205 286.027C347.521 286.027 347.762 286.118 347.926 286.3C348.09 286.481 348.172 286.704 348.172 286.968C348.172 287.231 348.09 287.451 347.926 287.627C347.762 287.803 347.521 287.891 347.205 287.891C346.889 287.891 346.648 287.803 346.484 287.627C346.326 287.451 346.247 287.231 346.247 286.968ZM352.153 289.49L352.206 290.686C352.933 289.771 353.882 289.314 355.054 289.314C357.063 289.314 358.077 290.448 358.095 292.716V299H356.469V292.707C356.463 292.021 356.305 291.515 355.994 291.187C355.689 290.858 355.212 290.694 354.562 290.694C354.034 290.694 353.571 290.835 353.173 291.116C352.774 291.397 352.464 291.767 352.241 292.224V299H350.615V289.49H352.153ZM360.16 294.166C360.16 292.684 360.503 291.506 361.188 290.633C361.874 289.754 362.782 289.314 363.913 289.314C365.073 289.314 365.979 289.725 366.629 290.545L366.708 289.49H368.193V298.771C368.193 300.002 367.827 300.972 367.095 301.681C366.368 302.39 365.39 302.744 364.159 302.744C363.474 302.744 362.803 302.598 362.146 302.305C361.49 302.012 360.989 301.61 360.644 301.101L361.487 300.125C362.185 300.986 363.037 301.417 364.045 301.417C364.836 301.417 365.451 301.194 365.891 300.749C366.336 300.304 366.559 299.677 366.559 298.868V298.051C365.908 298.801 365.021 299.176 363.896 299.176C362.782 299.176 361.88 298.728 361.188 297.831C360.503 296.935 360.16 295.713 360.16 294.166ZM361.795 294.351C361.795 295.423 362.015 296.267 362.454 296.882C362.894 297.491 363.509 297.796 364.3 297.796C365.325 297.796 366.078 297.33 366.559 296.398V292.057C366.061 291.148 365.313 290.694 364.317 290.694C363.526 290.694 362.908 291.002 362.463 291.617C362.018 292.232 361.795 293.144 361.795 294.351ZM379.188 294.166C379.188 292.707 379.534 291.535 380.226 290.65C380.917 289.76 381.822 289.314 382.941 289.314C384.055 289.314 384.937 289.695 385.587 290.457V285.5H387.213V299H385.719L385.64 297.98C384.989 298.777 384.084 299.176 382.924 299.176C381.822 299.176 380.923 298.725 380.226 297.822C379.534 296.92 379.188 295.742 379.188 294.289V294.166ZM380.814 294.351C380.814 295.429 381.037 296.272 381.482 296.882C381.928 297.491 382.543 297.796 383.328 297.796C384.359 297.796 385.112 297.333 385.587 296.407V292.039C385.101 291.143 384.354 290.694 383.346 290.694C382.549 290.694 381.928 291.002 381.482 291.617C381.037 292.232 380.814 293.144 380.814 294.351ZM391.511 299H389.885V289.49H391.511V299ZM389.753 286.968C389.753 286.704 389.832 286.481 389.99 286.3C390.154 286.118 390.395 286.027 390.711 286.027C391.027 286.027 391.268 286.118 391.432 286.3C391.596 286.481 391.678 286.704 391.678 286.968C391.678 287.231 391.596 287.451 391.432 287.627C391.268 287.803 391.027 287.891 390.711 287.891C390.395 287.891 390.154 287.803 389.99 287.627C389.832 287.451 389.753 287.231 389.753 286.968ZM398.718 290.949C398.472 290.908 398.205 290.888 397.918 290.888C396.852 290.888 396.128 291.342 395.747 292.25V299H394.121V289.49H395.703L395.729 290.589C396.263 289.739 397.019 289.314 397.997 289.314C398.313 289.314 398.554 289.355 398.718 289.438V290.949ZM403.991 299.176C402.702 299.176 401.653 298.754 400.845 297.91C400.036 297.061 399.632 295.927 399.632 294.509V294.21C399.632 293.267 399.811 292.426 400.168 291.688C400.531 290.943 401.035 290.363 401.68 289.947C402.33 289.525 403.033 289.314 403.789 289.314C405.025 289.314 405.986 289.722 406.672 290.536C407.357 291.351 407.7 292.517 407.7 294.034V294.711H401.258C401.281 295.648 401.554 296.407 402.075 296.987C402.603 297.562 403.271 297.849 404.079 297.849C404.653 297.849 405.14 297.731 405.538 297.497C405.937 297.263 406.285 296.952 406.584 296.565L407.577 297.339C406.78 298.563 405.585 299.176 403.991 299.176ZM403.789 290.65C403.133 290.65 402.582 290.891 402.137 291.371C401.691 291.846 401.416 292.514 401.311 293.375H406.074V293.252C406.027 292.426 405.805 291.787 405.406 291.336C405.008 290.879 404.469 290.65 403.789 290.65ZM413.404 297.849C413.984 297.849 414.491 297.673 414.925 297.321C415.358 296.97 415.599 296.53 415.646 296.003H417.184C417.154 296.548 416.967 297.066 416.621 297.559C416.275 298.051 415.812 298.443 415.232 298.736C414.658 299.029 414.049 299.176 413.404 299.176C412.109 299.176 411.078 298.745 410.311 297.884C409.549 297.017 409.168 295.833 409.168 294.333V294.061C409.168 293.135 409.338 292.312 409.678 291.591C410.018 290.87 410.504 290.311 411.137 289.912C411.775 289.514 412.528 289.314 413.396 289.314C414.462 289.314 415.347 289.634 416.05 290.272C416.759 290.911 417.137 291.74 417.184 292.76H415.646C415.599 292.145 415.364 291.641 414.942 291.248C414.526 290.85 414.011 290.65 413.396 290.65C412.569 290.65 411.928 290.949 411.471 291.547C411.02 292.139 410.794 292.997 410.794 294.122V294.43C410.794 295.525 411.02 296.369 411.471 296.961C411.922 297.553 412.566 297.849 413.404 297.849ZM421.218 287.188V289.49H422.993V290.747H421.218V296.645C421.218 297.025 421.297 297.312 421.455 297.506C421.613 297.693 421.883 297.787 422.264 297.787C422.451 297.787 422.709 297.752 423.037 297.682V299C422.609 299.117 422.193 299.176 421.789 299.176C421.062 299.176 420.515 298.956 420.146 298.517C419.776 298.077 419.592 297.453 419.592 296.645V290.747H417.86V289.49H419.592V287.188H421.218ZM426.667 299H425.041V289.49H426.667V299ZM424.909 286.968C424.909 286.704 424.988 286.481 425.146 286.3C425.311 286.118 425.551 286.027 425.867 286.027C426.184 286.027 426.424 286.118 426.588 286.3C426.752 286.481 426.834 286.704 426.834 286.968C426.834 287.231 426.752 287.451 426.588 287.627C426.424 287.803 426.184 287.891 425.867 287.891C425.551 287.891 425.311 287.803 425.146 287.627C424.988 287.451 424.909 287.231 424.909 286.968ZM428.847 294.157C428.847 293.226 429.028 292.388 429.392 291.644C429.761 290.899 430.271 290.325 430.921 289.921C431.577 289.517 432.324 289.314 433.162 289.314C434.457 289.314 435.503 289.763 436.3 290.659C437.103 291.556 437.504 292.748 437.504 294.236V294.351C437.504 295.276 437.325 296.108 436.968 296.847C436.616 297.579 436.109 298.15 435.447 298.561C434.791 298.971 434.035 299.176 433.18 299.176C431.891 299.176 430.845 298.728 430.042 297.831C429.245 296.935 428.847 295.748 428.847 294.271V294.157ZM430.481 294.351C430.481 295.405 430.725 296.252 431.211 296.891C431.703 297.529 432.359 297.849 433.18 297.849C434.006 297.849 434.662 297.526 435.148 296.882C435.635 296.231 435.878 295.323 435.878 294.157C435.878 293.114 435.629 292.271 435.131 291.626C434.639 290.976 433.982 290.65 433.162 290.65C432.359 290.65 431.712 290.97 431.22 291.608C430.728 292.247 430.481 293.161 430.481 294.351ZM441.081 289.49L441.134 290.686C441.86 289.771 442.81 289.314 443.981 289.314C445.991 289.314 447.005 290.448 447.022 292.716V299H445.396V292.707C445.391 292.021 445.232 291.515 444.922 291.187C444.617 290.858 444.14 290.694 443.489 290.694C442.962 290.694 442.499 290.835 442.101 291.116C441.702 291.397 441.392 291.767 441.169 292.224V299H439.543V289.49H441.081ZM455.012 296.478C455.012 296.038 454.845 295.698 454.511 295.458C454.183 295.212 453.605 295.001 452.779 294.825C451.959 294.649 451.306 294.438 450.819 294.192C450.339 293.946 449.981 293.653 449.747 293.313C449.519 292.974 449.404 292.569 449.404 292.101C449.404 291.321 449.732 290.662 450.389 290.123C451.051 289.584 451.895 289.314 452.92 289.314C453.998 289.314 454.871 289.593 455.539 290.149C456.213 290.706 456.55 291.418 456.55 292.285H454.915C454.915 291.84 454.725 291.456 454.344 291.134C453.969 290.812 453.494 290.65 452.92 290.65C452.328 290.65 451.865 290.779 451.531 291.037C451.197 291.295 451.03 291.632 451.03 292.048C451.03 292.44 451.186 292.736 451.496 292.936C451.807 293.135 452.366 293.325 453.175 293.507C453.989 293.688 454.648 293.905 455.152 294.157C455.656 294.409 456.028 294.714 456.269 295.071C456.515 295.423 456.638 295.854 456.638 296.363C456.638 297.213 456.298 297.896 455.618 298.411C454.938 298.921 454.057 299.176 452.973 299.176C452.211 299.176 451.537 299.041 450.951 298.771C450.365 298.502 449.905 298.127 449.571 297.646C449.243 297.16 449.079 296.636 449.079 296.073H450.705C450.734 296.618 450.951 297.052 451.355 297.374C451.766 297.69 452.305 297.849 452.973 297.849C453.588 297.849 454.08 297.726 454.449 297.479C454.824 297.228 455.012 296.894 455.012 296.478Z" fill="#7168FD"/>
  <g filter="url(#filter4_ddii)">
    <rect x="260" y="358" width="456" height="79" fill="#DCF6E8"/>
  </g>
  <path d="M468.665 391.203L472.849 401.645L477.032 391.203H479.221V404H477.533V399.017L477.691 393.638L473.49 404H472.198L468.006 393.664L468.173 399.017V404H466.485V391.203H468.665ZM487.816 404C487.723 403.812 487.646 403.479 487.588 402.998C486.832 403.783 485.93 404.176 484.881 404.176C483.943 404.176 483.173 403.912 482.569 403.385C481.972 402.852 481.673 402.178 481.673 401.363C481.673 400.373 482.048 399.605 482.798 399.061C483.554 398.51 484.614 398.234 485.979 398.234H487.562V397.487C487.562 396.919 487.392 396.468 487.052 396.134C486.712 395.794 486.211 395.624 485.549 395.624C484.969 395.624 484.482 395.771 484.09 396.063C483.697 396.356 483.501 396.711 483.501 397.127H481.866C481.866 396.652 482.033 396.195 482.367 395.756C482.707 395.311 483.164 394.959 483.738 394.701C484.318 394.443 484.954 394.314 485.646 394.314C486.741 394.314 487.6 394.59 488.221 395.141C488.842 395.686 489.164 396.438 489.188 397.399V401.776C489.188 402.649 489.299 403.344 489.521 403.859V404H487.816ZM485.118 402.761C485.628 402.761 486.111 402.629 486.568 402.365C487.025 402.102 487.356 401.759 487.562 401.337V399.386H486.287C484.295 399.386 483.299 399.969 483.299 401.135C483.299 401.645 483.469 402.043 483.809 402.33C484.148 402.617 484.585 402.761 485.118 402.761ZM499.77 399.351C499.77 400.798 499.438 401.964 498.776 402.849C498.114 403.733 497.218 404.176 496.087 404.176C494.933 404.176 494.024 403.81 493.362 403.077V407.656H491.736V394.49H493.222L493.301 395.545C493.963 394.725 494.883 394.314 496.061 394.314C497.203 394.314 498.105 394.745 498.768 395.606C499.436 396.468 499.77 397.666 499.77 399.201V399.351ZM498.144 399.166C498.144 398.094 497.915 397.247 497.458 396.626C497.001 396.005 496.374 395.694 495.577 395.694C494.593 395.694 493.854 396.131 493.362 397.004V401.548C493.849 402.415 494.593 402.849 495.595 402.849C496.374 402.849 496.992 402.541 497.449 401.926C497.912 401.305 498.144 400.385 498.144 399.166ZM507.381 401.478C507.381 401.038 507.214 400.698 506.88 400.458C506.552 400.212 505.975 400.001 505.148 399.825C504.328 399.649 503.675 399.438 503.188 399.192C502.708 398.946 502.351 398.653 502.116 398.313C501.888 397.974 501.773 397.569 501.773 397.101C501.773 396.321 502.102 395.662 502.758 395.123C503.42 394.584 504.264 394.314 505.289 394.314C506.367 394.314 507.24 394.593 507.908 395.149C508.582 395.706 508.919 396.418 508.919 397.285H507.284C507.284 396.84 507.094 396.456 506.713 396.134C506.338 395.812 505.863 395.65 505.289 395.65C504.697 395.65 504.234 395.779 503.9 396.037C503.566 396.295 503.399 396.632 503.399 397.048C503.399 397.44 503.555 397.736 503.865 397.936C504.176 398.135 504.735 398.325 505.544 398.507C506.358 398.688 507.018 398.905 507.521 399.157C508.025 399.409 508.397 399.714 508.638 400.071C508.884 400.423 509.007 400.854 509.007 401.363C509.007 402.213 508.667 402.896 507.987 403.411C507.308 403.921 506.426 404.176 505.342 404.176C504.58 404.176 503.906 404.041 503.32 403.771C502.734 403.502 502.274 403.127 501.94 402.646C501.612 402.16 501.448 401.636 501.448 401.073H503.074C503.104 401.618 503.32 402.052 503.725 402.374C504.135 402.69 504.674 402.849 505.342 402.849C505.957 402.849 506.449 402.726 506.818 402.479C507.193 402.228 507.381 401.894 507.381 401.478Z" fill="#7168FD"/>
  <defs>
    <filter id="filter0_ddii" x="132" y="0" width="506" height="479" filterUnits="userSpaceOnUse" color-interpolation-filters="sRGB">
      <feFlood flood-opacity="0" result="BackgroundImageFix"/>
      <feColorMatrix in="SourceAlpha" type="matrix" values="0 0 0 0 0 0 0 0 0 0 0 0 0 0 0 0 0 0 127 0"/>
      <feOffset dx="10" dy="10"/>
      <feGaussianBlur stdDeviation="8"/>
      <feColorMatrix type="matrix" values="0 0 0 0 0.871094 0 0 0 0 0.894323 0 0 0 0 0.929167 0 0 0 1 0"/>
      <feBlend mode="normal" in2="BackgroundImageFix" result="effect1_dropShadow"/>
      <feColorMatrix in="SourceAlpha" type="matrix" values="0 0 0 0 0 0 0 0 0 0 0 0 0 0 0 0 0 0 127 0"/>
      <feOffset dx="-10" dy="-10"/>
      <feGaussianBlur stdDeviation="8"/>
      <feColorMatrix type="matrix" values="0 0 0 0 1 0 0 0 0 1 0 0 0 0 1 0 0 0 1 0"/>
      <feBlend mode="normal" in2="effect1_dropShadow" result="effect2_dropShadow"/>
      <feBlend mode="normal" in="SourceGraphic" in2="effect2_dropShadow" result="shape"/>
      <feColorMatrix in="SourceAlpha" type="matrix" values="0 0 0 0 0 0 0 0 0 0 0 0 0 0 0 0 0 0 127 0" result="hardAlpha"/>
      <feOffset dx="4" dy="4"/>
      <feGaussianBlur stdDeviation="2"/>
      <feComposite in2="hardAlpha" operator="arithmetic" k2="-1" k3="1"/>
      <feColorMatrix type="matrix" values="0 0 0 0 0.870588 0 0 0 0 0.894118 0 0 0 0 0.929412 0 0 0 0.4 0"/>
      <feBlend mode="normal" in2="shape" result="effect3_innerShadow"/>
      <feColorMatrix in="SourceAlpha" type="matrix" values="0 0 0 0 0 0 0 0 0 0 0 0 0 0 0 0 0 0 127 0" result="hardAlpha"/>
      <feOffset dx="-4" dy="-4"/>
      <feGaussianBlur stdDeviation="4"/>
      <feComposite in2="hardAlpha" operator="arithmetic" k2="-1" k3="1"/>
      <feColorMatrix type="matrix" values="0 0 0 0 1 0 0 0 0 1 0 0 0 0 1 0 0 0 1 0"/>
      <feBlend mode="normal" in2="effect3_innerShadow" result="effect4_innerShadow"/>
    </filter>
    <filter id="filter1_ddii" x="0" y="34" width="553" height="151" filterUnits="userSpaceOnUse" color-interpolation-filters="sRGB">
      <feFlood flood-opacity="0" result="BackgroundImageFix"/>
      <feColorMatrix in="SourceAlpha" type="matrix" values="0 0 0 0 0 0 0 0 0 0 0 0 0 0 0 0 0 0 127 0"/>
      <feOffset dx="10" dy="10"/>
      <feGaussianBlur stdDeviation="18"/>
      <feColorMatrix type="matrix" values="0 0 0 0 0.905882 0 0 0 0 0.92549 0 0 0 0 1 0 0 0 1 0"/>
      <feBlend mode="normal" in2="BackgroundImageFix" result="effect1_dropShadow"/>
      <feColorMatrix in="SourceAlpha" type="matrix" values="0 0 0 0 0 0 0 0 0 0 0 0 0 0 0 0 0 0 127 0"/>
      <feOffset dx="-10" dy="-10"/>
      <feGaussianBlur stdDeviation="8"/>
      <feColorMatrix type="matrix" values="0 0 0 0 1 0 0 0 0 1 0 0 0 0 1 0 0 0 1 0"/>
      <feBlend mode="normal" in2="effect1_dropShadow" result="effect2_dropShadow"/>
      <feBlend mode="normal" in="SourceGraphic" in2="effect2_dropShadow" result="shape"/>
      <feColorMatrix in="SourceAlpha" type="matrix" values="0 0 0 0 0 0 0 0 0 0 0 0 0 0 0 0 0 0 127 0" result="hardAlpha"/>
      <feOffset dx="4" dy="4"/>
      <feGaussianBlur stdDeviation="2"/>
      <feComposite in2="hardAlpha" operator="arithmetic" k2="-1" k3="1"/>
      <feColorMatrix type="matrix" values="0 0 0 0 0.905882 0 0 0 0 0.92549 0 0 0 0 1 0 0 0 0.25 0"/>
      <feBlend mode="normal" in2="shape" result="effect3_innerShadow"/>
      <feColorMatrix in="SourceAlpha" type="matrix" values="0 0 0 0 0 0 0 0 0 0 0 0 0 0 0 0 0 0 127 0" result="hardAlpha"/>
      <feOffset dx="-4" dy="-4"/>
      <feGaussianBlur stdDeviation="4"/>
      <feComposite in2="hardAlpha" operator="arithmetic" k2="-1" k3="1"/>
      <feColorMatrix type="matrix" values="0 0 0 0 1 0 0 0 0 1 0 0 0 0 1 0 0 0 1 0"/>
      <feBlend mode="normal" in2="effect3_innerShadow" result="effect4_innerShadow"/>
    </filter>
    <filter id="filter2_ddii" x="78" y="129" width="508" height="131" filterUnits="userSpaceOnUse" color-interpolation-filters="sRGB">
      <feFlood flood-opacity="0" result="BackgroundImageFix"/>
      <feColorMatrix in="SourceAlpha" type="matrix" values="0 0 0 0 0 0 0 0 0 0 0 0 0 0 0 0 0 0 127 0"/>
      <feOffset dx="10" dy="10"/>
      <feGaussianBlur stdDeviation="8"/>
      <feColorMatrix type="matrix" values="0 0 0 0 0.871094 0 0 0 0 0.894323 0 0 0 0 0.929167 0 0 0 1 0"/>
      <feBlend mode="normal" in2="BackgroundImageFix" result="effect1_dropShadow"/>
      <feColorMatrix in="SourceAlpha" type="matrix" values="0 0 0 0 0 0 0 0 0 0 0 0 0 0 0 0 0 0 127 0"/>
      <feOffset dx="-10" dy="-10"/>
      <feGaussianBlur stdDeviation="8"/>
      <feColorMatrix type="matrix" values="0 0 0 0 1 0 0 0 0 1 0 0 0 0 1 0 0 0 1 0"/>
      <feBlend mode="normal" in2="effect1_dropShadow" result="effect2_dropShadow"/>
      <feBlend mode="normal" in="SourceGraphic" in2="effect2_dropShadow" result="shape"/>
      <feColorMatrix in="SourceAlpha" type="matrix" values="0 0 0 0 0 0 0 0 0 0 0 0 0 0 0 0 0 0 127 0" result="hardAlpha"/>
      <feOffset dx="4" dy="4"/>
      <feGaussianBlur stdDeviation="2"/>
      <feComposite in2="hardAlpha" operator="arithmetic" k2="-1" k3="1"/>
      <feColorMatrix type="matrix" values="0 0 0 0 0.870588 0 0 0 0 0.894118 0 0 0 0 0.929412 0 0 0 0.4 0"/>
      <feBlend mode="normal" in2="shape" result="effect3_innerShadow"/>
      <feColorMatrix in="SourceAlpha" type="matrix" values="0 0 0 0 0 0 0 0 0 0 0 0 0 0 0 0 0 0 127 0" result="hardAlpha"/>
      <feOffset dx="-4" dy="-4"/>
      <feGaussianBlur stdDeviation="4"/>
      <feComposite in2="hardAlpha" operator="arithmetic" k2="-1" k3="1"/>
      <feColorMatrix type="matrix" values="0 0 0 0 1 0 0 0 0 1 0 0 0 0 1 0 0 0 1 0"/>
      <feBlend mode="normal" in2="effect3_innerShadow" result="effect4_innerShadow"/>
    </filter>
    <filter id="filter3_ddii" x="132" y="227" width="528" height="151" filterUnits="userSpaceOnUse" color-interpolation-filters="sRGB">
      <feFlood flood-opacity="0" result="BackgroundImageFix"/>
      <feColorMatrix in="SourceAlpha" type="matrix" values="0 0 0 0 0 0 0 0 0 0 0 0 0 0 0 0 0 0 127 0"/>
      <feOffset dx="10" dy="10"/>
      <feGaussianBlur stdDeviation="18"/>
      <feColorMatrix type="matrix" values="0 0 0 0 0.905882 0 0 0 0 0.92549 0 0 0 0 1 0 0 0 1 0"/>
      <feBlend mode="normal" in2="BackgroundImageFix" result="effect1_dropShadow"/>
      <feColorMatrix in="SourceAlpha" type="matrix" values="0 0 0 0 0 0 0 0 0 0 0 0 0 0 0 0 0 0 127 0"/>
      <feOffset dx="-10" dy="-10"/>
      <feGaussianBlur stdDeviation="8"/>
      <feColorMatrix type="matrix" values="0 0 0 0 1 0 0 0 0 1 0 0 0 0 1 0 0 0 1 0"/>
      <feBlend mode="normal" in2="effect1_dropShadow" result="effect2_dropShadow"/>
      <feBlend mode="normal" in="SourceGraphic" in2="effect2_dropShadow" result="shape"/>
      <feColorMatrix in="SourceAlpha" type="matrix" values="0 0 0 0 0 0 0 0 0 0 0 0 0 0 0 0 0 0 127 0" result="hardAlpha"/>
      <feOffset dx="4" dy="4"/>
      <feGaussianBlur stdDeviation="2"/>
      <feComposite in2="hardAlpha" operator="arithmetic" k2="-1" k3="1"/>
      <feColorMatrix type="matrix" values="0 0 0 0 0.905882 0 0 0 0 0.92549 0 0 0 0 1 0 0 0 0.25 0"/>
      <feBlend mode="normal" in2="shape" result="effect3_innerShadow"/>
      <feColorMatrix in="SourceAlpha" type="matrix" values="0 0 0 0 0 0 0 0 0 0 0 0 0 0 0 0 0 0 127 0" result="hardAlpha"/>
      <feOffset dx="-4" dy="-4"/>
      <feGaussianBlur stdDeviation="4"/>
      <feComposite in2="hardAlpha" operator="arithmetic" k2="-1" k3="1"/>
      <feColorMatrix type="matrix" values="0 0 0 0 1 0 0 0 0 1 0 0 0 0 1 0 0 0 1 0"/>
      <feBlend mode="normal" in2="effect3_innerShadow" result="effect4_innerShadow"/>
    </filter>
    <filter id="filter4_ddii" x="234" y="332" width="508" height="131" filterUnits="userSpaceOnUse" color-interpolation-filters="sRGB">
      <feFlood flood-opacity="0" result="BackgroundImageFix"/>
      <feColorMatrix in="SourceAlpha" type="matrix" values="0 0 0 0 0 0 0 0 0 0 0 0 0 0 0 0 0 0 127 0"/>
      <feOffset dx="10" dy="10"/>
      <feGaussianBlur stdDeviation="8"/>
      <feColorMatrix type="matrix" values="0 0 0 0 0.871094 0 0 0 0 0.894323 0 0 0 0 0.929167 0 0 0 1 0"/>
      <feBlend mode="normal" in2="BackgroundImageFix" result="effect1_dropShadow"/>
      <feColorMatrix in="SourceAlpha" type="matrix" values="0 0 0 0 0 0 0 0 0 0 0 0 0 0 0 0 0 0 127 0"/>
      <feOffset dx="-10" dy="-10"/>
      <feGaussianBlur stdDeviation="8"/>
      <feColorMatrix type="matrix" values="0 0 0 0 1 0 0 0 0 1 0 0 0 0 1 0 0 0 1 0"/>
      <feBlend mode="normal" in2="effect1_dropShadow" result="effect2_dropShadow"/>
      <feBlend mode="normal" in="SourceGraphic" in2="effect2_dropShadow" result="shape"/>
      <feColorMatrix in="SourceAlpha" type="matrix" values="0 0 0 0 0 0 0 0 0 0 0 0 0 0 0 0 0 0 127 0" result="hardAlpha"/>
      <feOffset dx="4" dy="4"/>
      <feGaussianBlur stdDeviation="2"/>
      <feComposite in2="hardAlpha" operator="arithmetic" k2="-1" k3="1"/>
      <feColorMatrix type="matrix" values="0 0 0 0 0.870588 0 0 0 0 0.894118 0 0 0 0 0.929412 0 0 0 0.4 0"/>
      <feBlend mode="normal" in2="shape" result="effect3_innerShadow"/>
      <feColorMatrix in="SourceAlpha" type="matrix" values="0 0 0 0 0 0 0 0 0 0 0 0 0 0 0 0 0 0 127 0" result="hardAlpha"/>
      <feOffset dx="-4" dy="-4"/>
      <feGaussianBlur stdDeviation="4"/>
      <feComposite in2="hardAlpha" operator="arithmetic" k2="-1" k3="1"/>
      <feColorMatrix type="matrix" values="0 0 0 0 1 0 0 0 0 1 0 0 0 0 1 0 0 0 1 0"/>
      <feBlend mode="normal" in2="effect3_innerShadow" result="effect4_innerShadow"/>
    </filter>
  </defs>
</svg>
