<svg width="192" height="671" viewBox="0 0 192 671" fill="none" xmlns="http://www.w3.org/2000/svg">
  <path d="M483.801 532.418C480.536 563.025 469.052 590.971 453.067 610.74C451.961 612.038 450.838 613.336 449.715 614.634C449.715 614.634 387.199 567.198 387.173 567.276C376.083 579.853 425.527 635.566 411.763 638.802C386.514 644.423 361.012 633.091 335.502 631.118C289.784 627.562 245.729 653.872 200.69 665.918C155.651 677.963 102.61 671.11 74.0961 617.814C73.9255 617.52 73.7656 617.212 73.6173 616.892C64.5799 599.642 58.8596 579.12 51.7377 559.91C50.5014 556.548 49.2389 553.277 47.9155 550.045C35.2475 519.451 16.6328 494.386 6.99466 461.482C-2.64045 428.292 -2.30781 390.546 7.90885 357.745C17.0333 328.956 33.0795 306.539 48.7252 284.888C49.7439 283.499 50.7277 282.111 51.7377 280.722C65.1748 262.134 78.6236 243.53 92.0839 224.908C99.4845 214.718 106.885 204.438 114.573 194.69C124.768 181.736 135.347 169.535 146.909 159.449C175.031 134.684 246.386 8.19275 276.946 0.469627C312.242 -8.47362 303.767 113.033 338.114 133.308C358.139 145.094 375.352 165.277 392.243 185.137C394.977 188.369 400.638 191.458 403.363 194.69C418.817 212.862 431.292 231.125 446.519 249.726C449.845 253.788 453.197 257.955 456.314 262.394C461.164 269.286 465.465 276.88 468.225 285.901C471.551 296.687 472.395 308.733 473.205 320.519C474.337 337.107 475.463 353.657 476.583 370.167C477.262 379.993 477.907 389.819 478.586 399.593C480.112 421.875 481.633 444.132 483.148 466.363C484.619 488.351 486.117 510.599 483.801 532.418Z" fill="#E7ECFF"/>
</svg>
